<svg width="32769" height="11745" viewBox="0 0 32769 11745" fill="none" xmlns="http://www.w3.org/2000/svg">
<path d="M460.774 6186.54C246.296 6037.64 252.132 5715.94 471.692 5574.65C2752.99 4106.58 3965.38 2848.15 5564.76 464.155C5710.03 247.616 6031.51 249.45 6175.09 467.119C7828.77 2974.24 9090.61 4188.61 11250.6 5564.25C11475.8 5707.68 11477.5 6038.48 11253.4 6183.67C9040.47 7617.52 7788.11 8835.92 6167.4 11289.3C6025.78 11503.7 5710.63 11509.3 5562.82 11299.2C4020.86 9106.67 2831.1 7832.03 460.774 6186.54Z" fill="#141821"/>
<path d="M1703.82 5592.82C3421.28 4474.21 4369.08 3491.94 5583.34 1696.5C5720.29 1494 6021.54 1495.33 6157.04 1698.88C7411.87 3583.85 8394.35 4534.75 10019.3 5582.43C10229.9 5718.16 10231.2 6029.1 10021.7 6166.37C8356.49 7257.65 7380.44 8211.48 6149.33 10058.3C6015.68 10258.8 5720.27 10263.4 5581.08 10066.9C4409.82 8413.03 3477.91 7419.69 1693.29 6169.06C1492.81 6028.57 1498.54 5726.52 1703.82 5592.82Z" fill="#141821" stroke="#737373" stroke-width="62"/>
<path d="M5587.01 10079.7L4471.14 8639.39L6963.98 8638.35H7036.46H7212.77L6700.07 9279.77L6172.99 10048.4L6021.76 10184.9L5930.29 10213.7H5827.38H5757.67L5679.11 10167.6L5587.01 10079.7Z" fill="#737373"/>
<path fill-rule="evenodd" clip-rule="evenodd" d="M4842.57 6862.24L4842.57 6621.8C4747.2 6603.07 4653.25 6582.36 4619.33 6570.25C4575.85 6554.89 4529.36 6539.09 4481.36 6522.77C4149.86 6410.12 3746.29 6272.97 3766.71 6085.76C3720.08 5874.92 4381.79 5565.89 4814.5 5397.81L4767.99 5371.46L4727.25 5336.84L4659.89 5291.05L4581.43 5248.03L4450.62 5297.05C4069.35 5439.29 3782.17 5604.41 3616.94 5774.85C3507.41 5889.43 3475.73 5952.71 3474.75 6066.09C3473.46 6162.54 3491.28 6212.48 3560.42 6299.65C3689.01 6462.7 4002.2 6626.51 4482.03 6780.35C4576.07 6810.74 4699.13 6838.41 4842.57 6862.24ZM7366.85 6731.36C7195.76 6801.05 7015.76 6847.21 6789.33 6885.23L6771.63 6653.32C6836.9 6640.44 6902.54 6626.12 6968.87 6610.37C7396.34 6511.73 7646.92 6385.56 7783.95 6234.08C7898.02 6105.37 7899.59 6012.55 7773.6 5872.76C7724.83 5820.64 7511.73 5717.26 7407.61 5666.75C7401.47 5663.78 7395.72 5660.98 7390.39 5658.39L7319.83 5625.86L7197.12 5637.5C7162.89 5640.59 7146.19 5643.4 7133.42 5645.54C7121.06 5647.62 7112.37 5649.08 7095.05 5649.58L7012.09 5651.96L6901.99 5440.92C6888.48 5412.95 6878.65 5391.62 6870.5 5373.92C6847.17 5323.29 6837.5 5302.3 6794.58 5240.58C7165.15 5325.79 7534.6 5415.65 7902.82 5510.14C7904.93 5510.94 7868.39 5522.98 7823.16 5537.89L7823.11 5537.91L7821.66 5538.39C7817.77 5539.67 7813.92 5540.94 7810.12 5542.19C7768.98 5555.72 7733.9 5567.26 7729.19 5572.14C7725.08 5576.23 7740.87 5591.85 7765.96 5606.16C8067.03 5778.09 8156.98 5877.97 8161.64 6040.6C8166.87 6091.35 8156.16 6142.48 8130.94 6187.13C8088.58 6277.68 7988.98 6382.13 7861.38 6469.07C7703.92 6569.27 7538.55 6656.98 7366.85 6731.36Z" fill="url(#paint0_linear_61_24)"/>
<path d="M6757.21 5638.53L6576.21 5638.53H6546.33V4636.49H5136.63V5638.53L4957.91 5638.53L5136.62 5792H6546.33L6757.21 5638.53Z" fill="url(#paint1_linear_61_24)"/>
<path d="M6631.74 4601.85L6757.21 4486L4957.91 4484.18L5063.7 4601.85H6631.74Z" fill="url(#paint2_linear_61_24)"/>
<path d="M6556.88 4442.58V4275.68L6595.89 4226.29H6349.16V3810.79L6496.25 3745.82L6255.32 3642.57H5407.25L5191.28 3745.82L5322.9 3810.79V4226.29H5090.41L5136.63 4275.68V4442.58H6556.88Z" fill="url(#paint3_linear_61_24)"/>
<path d="M5154.73 3708.04L5090.41 3675.22C5124.03 3655.33 5222.21 3602.59 5345.92 3550.75C5425.07 3303.74 5660.89 3189.94 5768.9 3163.92V3072.6L5712.14 3020.89L5784.72 2949.79L5810.02 2717.6L5756.25 2685.61L5822.5 2677.82L5838.84 2627.27C5841.23 2623.95 5843.12 2625.89 5843.76 2627.27L5860.99 2677.82L5926.36 2685.61L5864.68 2717.6L5884.88 2949.79L5960.45 3020.89L5901.05 3072.6V3163.92C6148.76 3198.4 6303.01 3436.17 6349.16 3550.75L6595.89 3675.22L6517.16 3692.62L6255.32 3588.87H5407.25L5154.73 3708.04Z" fill="url(#paint4_linear_61_24)"/>
<path fill-rule="evenodd" clip-rule="evenodd" d="M5136.62 5867.06L5087.95 7522.27H4620.15L4774.8 7671.93V8604.2L4709.6 8646.47H5645.19H6998.5L6935.04 8604.2V7671.93L7103.22 7522.27H6609.42L6546.33 5867.06H5136.62ZM5359.27 6255.22V7522.27H6294.33V6255.22C5966.63 5724.2 5534.42 6033.96 5359.27 6255.22Z" fill="url(#paint5_linear_61_24)"/>
<path d="M6219.83 5160.88C6219.83 5383.14 6039.82 5563.29 5817.79 5563.29C5595.77 5563.29 5415.75 5383.14 5415.75 5160.88C5415.75 4938.62 5595.77 4758.47 5817.79 4758.47C6039.82 4758.47 6219.83 4938.62 6219.83 5160.88Z" fill="#141821" stroke="white" stroke-width="51"/>
<path d="M5827.75 5221.86C5861.43 5221.86 5888.73 5194.56 5888.73 5160.88C5888.73 5127.2 5861.43 5099.9 5827.75 5099.9C5794.07 5099.9 5766.77 5127.2 5766.77 5160.88C5766.77 5194.56 5794.07 5221.86 5827.75 5221.86ZM5839.19 5160.88V4893.84H5816.32V5160.88H5839.19Z" fill="white"/>
<line x1="6101.44" y1="5157.56" x2="5818.16" y2="5157.56" stroke="white" stroke-width="31"/>
<path d="M13186.8 2884.27H13717.9V5982.57H13186.8V2884.27ZM16397.7 2884.27V3380H14923.8V4185.55H16079.1V4681.28H14923.8V5486.84H16397.7V5982.57H14392.7V2884.27H16397.7ZM18986.9 2884.27V3380H17513V4185.55H18668.2V4681.28H17513V5486.84H18986.9V5982.57H16981.8V2884.27H18986.9ZM21576 2884.27V3380H20102.1V4185.55H21257.3V4681.28H20102.1V5486.84H21576V5982.57H19570.9V2884.27H21576ZM23555.1 5247.83C23649.5 5377.66 23770.5 5467.66 23918.1 5517.82C24065.6 5565.04 24216.1 5588.64 24369.5 5588.64C24428.5 5588.64 24492 5582.74 24559.9 5570.94C24627.7 5559.13 24691.2 5538.48 24750.2 5508.97C24809.2 5479.46 24857.9 5441.1 24896.2 5393.89C24934.6 5343.73 24953.8 5281.76 24953.8 5207.99C24953.8 5107.67 24911 5025.05 24825.4 4960.13C24739.9 4892.26 24633.6 4828.82 24506.7 4769.81C24379.9 4710.79 24241.2 4651.77 24090.7 4592.76C23943.1 4533.74 23805.9 4464.4 23679.1 4384.73C23552.2 4302.11 23445.9 4203.26 23360.4 4088.18C23274.8 3973.1 23232 3831.46 23232 3663.27C23232 3512.78 23261.5 3381.47 23320.5 3269.34C23379.6 3154.26 23457.7 3059.84 23555.1 2986.07C23652.5 2909.35 23764.6 2851.81 23891.5 2813.45C24021.3 2775.09 24155.6 2755.91 24294.3 2755.91C24497.9 2755.91 24694.1 2797.22 24883 2879.84C25071.8 2959.51 25238.5 3070.17 25383.1 3211.8L25033.5 3601.3C24930.2 3498.03 24813.6 3418.36 24683.8 3362.29C24556.9 3306.23 24421.2 3278.2 24276.6 3278.2C24211.7 3278.2 24146.8 3285.57 24081.8 3300.33C24019.9 3312.13 23963.8 3334.26 23913.6 3366.72C23866.4 3396.23 23828.1 3437.54 23798.6 3490.65C23769.1 3540.81 23754.3 3604.25 23754.3 3680.97C23754.3 3769.5 23797.1 3844.74 23882.7 3906.71C23968.2 3965.72 24074.5 4023.26 24201.3 4079.33C24328.2 4132.44 24465.4 4188.51 24613 4247.52C24763.5 4306.54 24902.1 4378.83 25029 4464.4C25155.9 4547.02 25262.1 4650.3 25347.7 4774.23C25433.3 4895.21 25476.1 5045.7 25476.1 5225.7C25476.1 5376.19 25442.1 5507.5 25374.3 5619.62C25306.4 5728.8 25219.4 5820.28 25113.1 5894.05C25006.9 5967.81 24885.9 6022.4 24750.2 6057.81C24617.4 6093.22 24484.6 6110.93 24351.8 6110.93C24236.7 6110.93 24121.7 6100.6 24006.6 6079.94C23894.5 6059.29 23785.3 6026.83 23679.1 5982.57C23575.8 5938.31 23478.4 5882.24 23386.9 5814.37C23295.5 5746.51 23214.3 5665.36 23143.5 5570.94L23555.1 5247.83ZM26058.9 2884.27H27037C27240.6 2884.27 27414.7 2919.68 27559.3 2990.5C27703.9 3061.31 27817.5 3154.26 27900.1 3269.34C27985.7 3381.47 28041.8 3506.88 28068.3 3645.57C28094.9 3781.3 28090.5 3915.56 28055.1 4048.34C28022.6 4178.18 27959.2 4299.16 27864.7 4411.29C27773.3 4523.42 27650.8 4608.99 27497.4 4668L28395.9 5982.57H27762.9L26926.4 4747.67H26590V5982.57H26058.9V2884.27ZM26590 4247.52H27037C27149.2 4247.52 27242.1 4226.87 27315.9 4185.55C27392.6 4141.29 27448.7 4088.18 27484.1 4026.21C27522.4 3961.3 27541.6 3891.95 27541.6 3818.19C27541.6 3741.47 27522.4 3672.12 27484.1 3610.16C27445.7 3545.24 27389.7 3492.13 27315.9 3450.82C27242.1 3406.55 27149.2 3384.42 27037 3384.42H26590V4247.52ZM29310.5 2884.27H29487.6L30660.5 5110.62L31833.4 2884.27H32010.5L32475.2 5982.57H31952.9L31678.5 4212.11L30749 5982.57H30572L29638.1 4212.11L29368.1 5982.57H28845.8L29310.5 2884.27Z" fill="black"/>
<path d="M13180.1 8270.88C13227.3 8335.8 13287.8 8380.8 13361.6 8405.88C13435.4 8429.49 13510.6 8441.29 13587.3 8441.29C13616.8 8441.29 13648.5 8438.34 13682.5 8432.44C13716.4 8426.54 13748.1 8416.21 13777.6 8401.45C13807.1 8386.7 13831.5 8367.52 13850.7 8343.91C13869.9 8318.83 13879.4 8287.85 13879.4 8250.97C13879.4 8200.8 13858 8159.49 13815.3 8127.03C13772.5 8093.1 13719.4 8061.38 13655.9 8031.87C13592.5 8002.36 13523.1 7972.86 13447.9 7943.35C13374.1 7913.84 13305.5 7879.17 13242.1 7839.33C13178.6 7798.02 13125.5 7748.6 13082.7 7691.06C13039.9 7633.52 13018.6 7562.7 13018.6 7478.6C13018.6 7403.36 13034.8 7341.39 13067.2 7292.71C13099.7 7242.54 13142.5 7202.71 13195.6 7173.2C13248.7 7142.22 13308.5 7120.82 13374.9 7109.02C13442.7 7095.74 13511.3 7089.1 13580.7 7089.1H15302.4V7336.97H14797.9V8638.25H14532.3V7336.97H13580.7C13545.3 7336.97 13509.9 7338.44 13474.4 7341.39C13439 7344.34 13406.6 7350.98 13377.1 7361.31C13349 7371.64 13325.4 7387.13 13306.3 7407.79C13288.6 7426.97 13279.7 7453.52 13279.7 7487.46C13279.7 7531.72 13301.1 7569.34 13343.9 7600.32C13386.7 7629.83 13439.8 7658.6 13503.2 7686.63C13566.7 7713.19 13635.3 7741.22 13709 7770.73C13784.3 7800.24 13853.6 7836.38 13917.1 7879.17C13980.5 7920.48 14033.6 7972.12 14076.4 8034.08C14119.2 8094.57 14140.6 8169.82 14140.6 8259.82C14140.6 8335.06 14123.6 8400.72 14089.7 8456.78C14055.7 8511.37 14012.2 8557.11 13959.1 8593.99C13906 8630.88 13845.5 8658.17 13777.6 8675.87C13711.2 8693.58 13644.9 8702.43 13578.5 8702.43C13520.9 8702.43 13463.4 8697.27 13405.8 8686.94C13349.8 8676.61 13295.2 8660.38 13242.1 8638.25C13190.4 8616.12 13141.8 8588.09 13096 8554.16C13050.3 8520.22 13009.7 8479.65 12974.3 8432.44L13180.1 8270.88ZM15527.2 7089.1H15792.8V8049.58C15792.8 8110.07 15803.1 8163.18 15823.7 8208.92C15844.4 8253.18 15871.7 8290.8 15905.6 8321.78C15939.6 8351.29 15977.9 8373.42 16020.7 8388.18C16065 8402.93 16109.2 8410.31 16153.5 8410.31C16199.2 8410.31 16243.5 8402.93 16286.3 8388.18C16329.1 8373.42 16367.4 8351.29 16401.4 8321.78C16435.3 8290.8 16462.6 8253.18 16483.2 8208.92C16503.9 8163.18 16514.2 8110.07 16514.2 8049.58V7089.1H16779.8V8049.58C16779.8 8155.8 16762.1 8249.49 16726.7 8330.64C16691.3 8410.31 16644.1 8477.44 16585 8532.03C16526 8585.14 16458.9 8624.97 16383.7 8651.53C16308.4 8678.09 16231.7 8691.37 16153.5 8691.37C16075.3 8691.37 15998.6 8678.09 15923.3 8651.53C15848.1 8624.97 15781 8585.14 15721.9 8532.03C15664.4 8477.44 15617.2 8410.31 15580.3 8330.64C15544.9 8249.49 15527.2 8155.8 15527.2 8049.58V7089.1ZM17094.6 7089.1H17552.7C17685.5 7090.58 17801.3 7113.45 17900.1 7157.71C17999 7201.97 18080.9 7260.98 18145.8 7334.75C18212.2 7407.05 18261.6 7489.67 18294.1 7582.62C18328 7674.09 18345 7767.78 18345 7863.68C18345 7959.58 18328 8054 18294.1 8146.95C18261.6 8238.42 18212.2 8321.05 18145.8 8394.81C18080.9 8467.11 17999 8525.39 17900.1 8569.65C17801.3 8613.91 17685.5 8636.78 17552.7 8638.25H17094.6V7089.1ZM17360.2 7336.97V8388.18H17541.6C17658.2 8388.18 17754.8 8362.36 17831.5 8310.72C17909.7 8259.08 17968 8194.16 18006.4 8115.97C18046.2 8037.77 18066.1 7953.68 18066.1 7863.68C18066.1 7772.2 18046.9 7687.37 18008.6 7609.17C17970.2 7530.98 17911.9 7466.06 17833.7 7414.42C17755.6 7362.79 17658.2 7336.97 17541.6 7336.97H17360.2ZM19648.8 7089.1V7336.97H18911.9V7739.75H19489.5V7987.61H18911.9V8390.39H19648.8V8638.25H18646.3V7089.1H19648.8ZM20031.6 7089.1L20939 8065.07V7089.1H21204.5V8638.25H21116L20206.5 7660.08V8638.25H19940.9V7089.1H20031.6ZM21451.7 7336.97V7089.1H22726.4V7336.97H22219.6V8638.25H21954V7336.97H21451.7ZM23511.2 7089.1H24049C24164 7089.1 24258.5 7112.71 24332.2 7159.92C24407.5 7207.13 24461.3 7266.15 24493.8 7336.97C24527.7 7406.31 24540.3 7480.08 24531.4 7558.27C24524 7636.47 24496 7706.55 24447.3 7768.52C24506.3 7805.4 24552.8 7852.61 24586.7 7910.15C24620.7 7967.69 24642.1 8028.92 24650.9 8093.84C24661.2 8157.28 24658.3 8221.46 24642.1 8286.37C24627.3 8351.29 24600 8410.31 24560.2 8463.42C24520.4 8515.06 24468 8557.11 24403.1 8589.56C24338.1 8622.02 24261.4 8638.25 24172.9 8638.25H23511.2V7089.1ZM23776.8 7695.48H24049C24118.3 7695.48 24170.7 7677.04 24206.1 7640.16C24241.5 7601.8 24259.2 7560.49 24259.2 7516.23C24259.2 7470.49 24241.5 7429.18 24206.1 7392.29C24170.7 7353.93 24118.3 7334.75 24049 7334.75H23776.8V7695.48ZM23776.8 8390.39H24172.9C24220.1 8390.39 24259.2 8379.32 24290.2 8357.19C24321.2 8335.06 24344 8307.77 24358.8 8275.31C24375 8242.85 24383.1 8207.44 24383.1 8169.08C24383.1 8129.25 24375 8093.1 24358.8 8060.64C24344 8028.18 24321.2 8000.89 24290.2 7978.76C24259.2 7956.63 24220.1 7945.56 24172.9 7945.56H23776.8V8390.39ZM24950.6 7089.1H25439.6C25541.4 7089.1 25628.5 7106.81 25700.8 7142.22C25773.1 7177.63 25829.9 7224.1 25871.2 7281.64C25914 7337.7 25942 7400.41 25955.3 7469.75C25968.6 7537.62 25966.4 7604.75 25948.6 7671.14C25932.4 7736.06 25900.7 7796.55 25853.5 7852.61C25807.7 7908.68 25746.5 7951.46 25669.8 7980.97L26119.1 8638.25H25802.6L25384.3 8020.81H25216.1V8638.25H24950.6V7089.1ZM25216.1 7770.73H25439.6C25495.7 7770.73 25542.2 7760.4 25579.1 7739.75C25617.4 7717.62 25645.5 7691.06 25663.2 7660.08C25682.3 7627.62 25691.9 7592.95 25691.9 7556.06C25691.9 7517.7 25682.3 7483.03 25663.2 7452.05C25644 7419.59 25615.9 7393.03 25579.1 7372.38C25542.2 7350.25 25495.7 7339.18 25439.6 7339.18H25216.1V7770.73ZM26277.6 8638.25L26999.1 7066.97H27043.3L27762.6 8638.25H27488.2L27388.6 8421.37H26653.8L26554.2 8638.25H26277.6ZM27273.5 8173.51L27021.2 7624.67L26766.7 8173.51H27273.5ZM28101.5 7089.1L29008.9 8065.07V7089.1H29274.5V8638.25H29186L28276.4 7660.08V8638.25H28010.8V7089.1H28101.5ZM30373.6 8671.45C30240.8 8671.45 30124.3 8648.58 30023.9 8602.84C29925.1 8555.63 29841.7 8494.4 29773.9 8419.16C29707.5 8343.91 29657.3 8257.6 29623.4 8160.23C29590.9 8062.85 29574.7 7964 29574.7 7863.68C29574.7 7763.35 29590.9 7664.5 29623.4 7567.13C29657.3 7469.75 29707.5 7383.44 29773.9 7308.2C29841.7 7232.95 29925.1 7172.46 30023.9 7126.73C30124.3 7079.51 30240.8 7055.91 30373.6 7055.91C30456.2 7055.91 30537.4 7069.92 30617 7097.96C30696.7 7124.51 30769.8 7162.87 30836.1 7213.04L30681.2 7429.92C30648.8 7400.41 30606 7374.59 30552.9 7352.46C30501.2 7330.33 30442.2 7319.26 30375.8 7319.26C30259.3 7319.26 30161.9 7346.56 30083.7 7401.15C30007 7454.26 29949.4 7521.39 29911.1 7602.54C29872.7 7682.21 29853.5 7769.25 29853.5 7863.68C29853.5 7958.1 29872.7 8045.89 29911.1 8127.03C29949.4 8206.7 30007 8273.83 30083.7 8328.42C30161.9 8381.54 30259.3 8408.09 30375.8 8408.09C30458.4 8408.09 30524.1 8396.29 30572.8 8372.68C30621.5 8347.6 30657.6 8324 30681.2 8301.87L30836.1 8514.32C30772.7 8565.96 30704.8 8605.06 30632.5 8631.61C30561.7 8658.17 30475.4 8671.45 30373.6 8671.45ZM31150.4 7089.1H31416V7739.75H32157.3V7089.1H32422.9V8638.25H32157.3V7987.61H31416V8638.25H31150.4V7987.61H30220.9V7739.75H31150.4V7089.1Z" fill="black"/>
<defs>
<linearGradient id="paint0_linear_61_24" x1="3451.65" y1="6063.08" x2="8638.72" y2="6063.08" gradientUnits="userSpaceOnUse">
<stop stop-color="white"/>
<stop offset="1" stop-color="#5D616A"/>
</linearGradient>
<linearGradient id="paint1_linear_61_24" x1="5861.69" y1="2625.44" x2="5861.69" y2="8646.47" gradientUnits="userSpaceOnUse">
<stop stop-color="#FEFEFE"/>
<stop offset="1" stop-color="#6F6F6F"/>
</linearGradient>
<linearGradient id="paint2_linear_61_24" x1="5861.69" y1="2625.44" x2="5861.69" y2="8646.47" gradientUnits="userSpaceOnUse">
<stop stop-color="#FEFEFE"/>
<stop offset="1" stop-color="#6F6F6F"/>
</linearGradient>
<linearGradient id="paint3_linear_61_24" x1="5861.69" y1="2625.44" x2="5861.69" y2="8646.47" gradientUnits="userSpaceOnUse">
<stop stop-color="#FEFEFE"/>
<stop offset="1" stop-color="#6F6F6F"/>
</linearGradient>
<linearGradient id="paint4_linear_61_24" x1="5861.69" y1="2625.44" x2="5861.69" y2="8646.47" gradientUnits="userSpaceOnUse">
<stop stop-color="#FEFEFE"/>
<stop offset="1" stop-color="#6F6F6F"/>
</linearGradient>
<linearGradient id="paint5_linear_61_24" x1="5861.69" y1="2625.44" x2="5861.69" y2="8646.47" gradientUnits="userSpaceOnUse">
<stop stop-color="#FEFEFE"/>
<stop offset="1" stop-color="#6F6F6F"/>
</linearGradient>
</defs>
</svg>
