<svg width="15921" height="15920" viewBox="0 0 15921 15920" fill="none" xmlns="http://www.w3.org/2000/svg">
<path d="M625.352 8386.49C334.609 8184.66 342.521 7748.56 640.152 7557.03C3732.64 5566.95 5376.14 3861.03 7544.23 629.332C7741.16 335.797 8176.95 338.283 8371.57 633.351C10613.3 4031.97 12323.8 5678.14 15251.9 7542.93C15557.2 7737.37 15559.4 8185.79 15255.6 8382.61C12255.8 10326.3 10558.2 11978 8361.16 15303.8C8169.18 15594.4 7741.96 15602 7541.59 15317.1C5451.34 12345 3838.52 10617.1 625.352 8386.49Z" fill="#141821"/>
<path d="M2296.13 8362.8C2024.36 8172.35 2032.13 7762.91 2310.41 7581.66C4638.57 6065.3 5923.39 4733.75 7569.42 2299.88C7755.07 2025.38 8163.43 2027.17 8347.11 2303.1C10048.1 4858.33 11380 6147.37 13582.8 7567.58C13868.2 7751.58 13869.9 8173.07 13586 8359.16C11328.6 9838.47 10005.5 11131.5 8336.66 13635C8155.48 13906.8 7755.04 13913 7566.35 13646.6C5978.62 11404.7 4715.33 10058.1 2296.13 8362.8Z" fill="#141821" stroke="#737373" stroke-width="62"/>
<path d="M7574.39 13664L6061.73 11711.5L9440.98 11710.1H9539.23H9778.23L9083.23 12579.6L8368.73 13621.6L8163.73 13806.6L8039.73 13845.6H7900.23H7805.73L7699.23 13783.1L7574.39 13664Z" fill="#737373"/>
<path fill-rule="evenodd" clip-rule="evenodd" d="M6565.23 9302.47L6565.23 8976.54C6435.96 8951.14 6308.6 8923.06 6262.61 8906.65C6203.68 8885.82 6140.66 8864.41 6075.59 8842.29C5626.21 8689.58 5079.14 8503.66 5106.82 8249.88C5043.61 7964.07 5940.61 7545.15 6527.19 7317.3L6464.14 7281.6L6408.92 7234.66L6317.6 7172.59L6211.24 7114.27L6033.92 7180.72C5517.08 7373.54 5127.78 7597.38 4903.8 7828.41C4755.32 7983.74 4712.37 8069.53 4711.04 8223.21C4709.3 8353.96 4733.46 8421.66 4827.17 8539.83C5001.5 8760.86 5426.05 8982.91 6076.5 9191.46C6203.98 9232.66 6370.8 9270.17 6565.23 9302.47ZM9987.11 9125.04C9755.18 9219.52 9511.17 9282.09 9204.23 9333.63L9180.23 9019.25C9268.72 9001.79 9357.7 8982.38 9447.61 8961.04C10027.1 8827.32 10366.8 8656.29 10552.5 8450.94C10707.2 8276.46 10709.3 8150.65 10538.5 7961.14C10472.4 7890.49 10183.5 7750.35 10042.4 7681.88C10034 7677.85 10026.2 7674.06 10019 7670.55L9923.37 7626.45L9757.02 7642.23C9710.63 7646.41 9687.99 7650.22 9670.67 7653.13C9653.92 7655.95 9642.15 7657.93 9618.66 7658.61L9506.21 7661.83L9356.95 7375.75C9338.64 7337.84 9325.32 7308.92 9314.26 7284.92C9282.64 7216.3 9269.53 7187.84 9211.35 7104.17C9713.69 7219.68 10214.5 7341.5 10713.7 7469.59C10716.5 7470.66 10667 7486.99 10605.7 7507.2L10605.6 7507.23L10603.6 7507.87C10598.4 7509.61 10593.1 7511.33 10588 7513.02C10532.2 7531.37 10484.7 7547.01 10478.3 7553.63C10472.7 7559.17 10494.1 7580.34 10528.1 7599.75C10936.3 7832.81 11058.2 7968.21 11064.5 8188.66C11071.6 8257.46 11057.1 8326.77 11022.9 8387.3C10965.5 8510.04 10830.5 8651.63 10657.5 8769.49C10444 8905.32 10219.9 9024.21 9987.11 9125.04Z" fill="url(#paint0_linear_164_145)"/>
<path d="M9160.69 7643.63L8915.33 7643.63H8874.83V6285.28H6963.86V7643.63L6721.59 7643.63L6963.85 7851.67H8874.83L9160.69 7643.63Z" fill="url(#paint1_linear_164_145)"/>
<path d="M8990.6 6238.32L9160.69 6081.28L6721.59 6078.81L6865 6238.32H8990.6Z" fill="url(#paint2_linear_164_145)"/>
<path d="M8889.12 6022.42V5796.17L8942.01 5729.22H8607.55V5165.98L8806.94 5077.91L8480.34 4937.94H7330.71L7037.94 5077.91L7216.37 5165.98V5729.22H6901.2L6963.86 5796.17V6022.42H8889.12Z" fill="url(#paint3_linear_164_145)"/>
<path d="M6988.39 5026.68L6901.2 4982.2C6946.78 4955.24 7079.87 4883.75 7247.57 4813.47C7354.86 4478.62 7674.54 4324.37 7820.96 4289.09V4165.3L7744.02 4095.2L7842.4 3998.82L7876.7 3684.06L7803.81 3640.7L7893.61 3630.14L7915.77 3561.61C7919.01 3557.12 7921.57 3559.74 7922.44 3561.61L7945.78 3630.14L8034.4 3640.7L7950.79 3684.06L7978.18 3998.82L8080.61 4095.2L8000.1 4165.3V4289.09C8335.89 4335.82 8544.98 4658.15 8607.55 4813.47L8942.01 4982.2L8835.29 5005.79L8480.34 4865.14H7330.71L6988.39 5026.68Z" fill="url(#paint4_linear_164_145)"/>
<path fill-rule="evenodd" clip-rule="evenodd" d="M6963.85 7953.42L6897.87 10197.2H6263.73L6473.36 10400.1V11663.8L6384.99 11721.1H7653.25H9487.78L9401.76 11663.8V10400.1L9629.73 10197.2H8960.35L8874.83 7953.42H6963.85ZM7265.67 8479.6V10197.2H8533.22V8479.6C8089 7759.76 7503.1 8179.67 7265.67 8479.6Z" fill="url(#paint5_linear_164_145)"/>
<path d="M8432.23 6996.13C8432.23 7297.43 8188.21 7541.63 7887.23 7541.63C7586.26 7541.63 7342.23 7297.43 7342.23 6996.13C7342.23 6694.84 7586.26 6450.63 7887.23 6450.63C8188.21 6450.63 8432.23 6694.84 8432.23 6996.13Z" fill="#141821" stroke="white" stroke-width="51"/>
<path d="M7900.73 7078.8C7946.39 7078.8 7983.4 7041.79 7983.4 6996.13C7983.4 6950.48 7946.39 6913.47 7900.73 6913.47C7855.08 6913.47 7818.07 6950.48 7818.07 6996.13C7818.07 7041.79 7855.08 7078.8 7900.73 7078.8ZM7916.23 6996.13V6634.13H7885.23V6996.13H7916.23Z" fill="white"/>
<line x1="8271.73" y1="6991.63" x2="7887.73" y2="6991.63" stroke="white" stroke-width="31"/>
<defs>
<linearGradient id="paint0_linear_164_145" x1="4679.73" y1="8219.13" x2="11711.2" y2="8219.13" gradientUnits="userSpaceOnUse">
<stop stop-color="white"/>
<stop offset="1" stop-color="#5D616A"/>
</linearGradient>
<linearGradient id="paint1_linear_164_145" x1="7946.73" y1="3559.13" x2="7946.73" y2="11721.1" gradientUnits="userSpaceOnUse">
<stop stop-color="#FEFEFE"/>
<stop offset="1" stop-color="#6F6F6F"/>
</linearGradient>
<linearGradient id="paint2_linear_164_145" x1="7946.73" y1="3559.13" x2="7946.73" y2="11721.1" gradientUnits="userSpaceOnUse">
<stop stop-color="#FEFEFE"/>
<stop offset="1" stop-color="#6F6F6F"/>
</linearGradient>
<linearGradient id="paint3_linear_164_145" x1="7946.73" y1="3559.13" x2="7946.73" y2="11721.1" gradientUnits="userSpaceOnUse">
<stop stop-color="#FEFEFE"/>
<stop offset="1" stop-color="#6F6F6F"/>
</linearGradient>
<linearGradient id="paint4_linear_164_145" x1="7946.73" y1="3559.13" x2="7946.73" y2="11721.1" gradientUnits="userSpaceOnUse">
<stop stop-color="#FEFEFE"/>
<stop offset="1" stop-color="#6F6F6F"/>
</linearGradient>
<linearGradient id="paint5_linear_164_145" x1="7946.73" y1="3559.13" x2="7946.73" y2="11721.1" gradientUnits="userSpaceOnUse">
<stop stop-color="#FEFEFE"/>
<stop offset="1" stop-color="#6F6F6F"/>
</linearGradient>
</defs>
</svg>
