<svg width="32769" height="11745" viewBox="0 0 32769 11745" fill="none" xmlns="http://www.w3.org/2000/svg">
<path d="M460.774 6186.64C246.296 6037.74 252.132 5716.04 471.692 5574.75C2752.99 4106.68 3965.38 2848.25 5564.76 464.254C5710.03 247.716 6031.51 249.549 6175.09 467.218C7828.77 2974.34 9090.61 4188.71 11250.6 5564.35C11475.8 5707.78 11477.5 6038.58 11253.4 6183.77C9040.47 7617.62 7788.11 8836.02 6167.41 11289.4C6025.78 11503.8 5710.63 11509.4 5562.82 11299.3C4020.86 9106.77 2831.1 7832.13 460.774 6186.64Z" fill="#000611"/>
<path d="M1693.29 6169.16C1492.81 6028.67 1498.54 5726.62 1703.82 5592.92C3421.29 4474.31 4369.08 3492.04 5583.34 1696.6C5720.3 1494.1 6021.54 1495.43 6157.04 1698.98C7411.87 3583.95 8394.35 4534.85 10019.3 5582.53C10229.9 5718.26 10231.2 6029.19 10021.7 6166.47C8356.49 7257.75 7380.44 8211.58 6149.33 10058.4C6015.68 10258.9 5720.27 10263.5 5581.08 10067C4409.82 8413.13 3477.91 7419.79 1693.29 6169.16Z" fill="#000611" stroke="#79675D" stroke-width="62"/>
<path d="M5587.01 10079.8L4471.14 8639.49H5587.01L6172.99 8638.45H7036.46H7076.66H7212.77L6700.07 9279.87L6172.99 10048.5L6021.77 10185L5930.29 10213.8H5827.38H5757.67L5679.11 10167.7L5587.01 10079.8Z" fill="#79675D"/>
<path fill-rule="evenodd" clip-rule="evenodd" d="M4842.57 6862.34L4842.57 6621.9C4747.2 6603.17 4653.25 6582.46 4619.33 6570.35C4575.85 6554.99 4529.36 6539.19 4481.36 6522.87C4149.86 6410.22 3746.29 6273.07 3766.71 6085.86C3720.08 5875.02 4381.79 5565.99 4814.5 5397.91L4767.99 5371.56L4727.25 5336.94L4659.89 5291.15L4581.43 5248.13L4450.62 5297.15C4069.35 5439.39 3782.17 5604.51 3616.94 5774.95C3507.41 5889.53 3475.73 5952.81 3474.75 6066.19C3473.46 6162.64 3491.28 6212.58 3560.42 6299.75C3689.02 6462.8 4002.2 6626.61 4482.03 6780.45C4576.07 6810.84 4699.13 6838.51 4842.57 6862.34ZM7366.85 6731.46C7195.76 6801.15 7015.76 6847.31 6789.33 6885.33L6771.63 6653.42C6836.9 6640.54 6902.54 6626.22 6968.87 6610.47C7396.34 6511.83 7646.92 6385.66 7783.95 6234.18C7898.02 6105.47 7899.59 6012.65 7773.6 5872.86C7724.83 5820.74 7511.73 5717.36 7407.61 5666.85C7401.47 5663.88 7395.72 5661.08 7390.39 5658.49L7319.83 5625.96L7197.12 5637.6C7162.89 5640.69 7146.19 5643.49 7133.42 5645.64C7121.06 5647.72 7112.38 5649.18 7095.05 5649.68L7012.1 5652.06L6901.99 5441.02C6888.48 5413.05 6878.65 5391.72 6870.5 5374.02C6847.17 5323.39 6837.5 5302.4 6794.58 5240.68C7165.16 5325.89 7534.6 5415.75 7902.82 5510.24C7904.93 5511.04 7868.4 5523.08 7823.16 5537.99L7823.11 5538.01L7821.66 5538.49C7817.77 5539.77 7813.92 5541.04 7810.12 5542.29C7768.99 5555.82 7733.9 5567.36 7729.2 5572.24C7725.08 5576.33 7740.87 5591.95 7765.96 5606.26C8067.03 5778.19 8156.98 5878.07 8161.64 6040.7C8166.87 6091.45 8156.16 6142.58 8130.94 6187.23C8088.58 6277.78 7988.98 6382.23 7861.38 6469.17C7703.92 6569.37 7538.55 6657.08 7366.85 6731.46Z" fill="url(#paint0_linear_164_92)"/>
<path d="M6757.21 5638.63L6576.21 5638.63H6546.33V4636.59H5136.63V5638.63L4957.91 5638.63L5136.62 5792.1H6546.33L6757.21 5638.63Z" fill="url(#paint1_linear_164_92)"/>
<path d="M6631.74 4601.95L6757.21 4486.1L4957.91 4484.28L5063.7 4601.95H6631.74Z" fill="url(#paint2_linear_164_92)"/>
<path d="M6556.88 4442.68V4275.78L6595.89 4226.39H6349.16V3810.89L6496.25 3745.92L6255.32 3642.67H5407.25L5191.28 3745.92L5322.9 3810.89V4226.39H5090.41L5136.63 4275.78V4442.68H6556.88Z" fill="url(#paint3_linear_164_92)"/>
<path d="M5154.73 3708.14L5090.41 3675.32C5124.03 3655.43 5222.21 3602.69 5345.92 3550.85C5425.07 3303.84 5660.89 3190.04 5768.9 3164.02V3072.7L5712.14 3020.99L5784.72 2949.89L5810.02 2717.7L5756.25 2685.71L5822.5 2677.92L5838.84 2627.37C5841.23 2624.05 5843.12 2625.99 5843.76 2627.37L5860.99 2677.92L5926.36 2685.71L5864.68 2717.7L5884.88 2949.89L5960.45 3020.99L5901.05 3072.7V3164.02C6148.76 3198.5 6303.01 3436.27 6349.16 3550.85L6595.89 3675.32L6517.16 3692.72L6255.32 3588.97H5407.25L5154.73 3708.14Z" fill="url(#paint4_linear_164_92)"/>
<path fill-rule="evenodd" clip-rule="evenodd" d="M5136.62 5867.16L5087.95 7522.37H4620.15L4774.8 7672.03V8604.3L4709.6 8646.57H5645.19H6998.5L6935.05 8604.3V7672.03L7103.22 7522.37H6609.42L6546.33 5867.16H5136.62ZM5359.27 6255.32V7522.37H6294.33V6255.32C5966.63 5724.3 5534.42 6034.06 5359.27 6255.32Z" fill="url(#paint5_linear_164_92)"/>
<path d="M6219.83 5160.98C6219.83 5383.24 6039.82 5563.39 5817.79 5563.39C5595.77 5563.39 5415.75 5383.24 5415.75 5160.98C5415.75 4938.72 5595.77 4758.57 5817.79 4758.57C6039.82 4758.57 6219.83 4938.72 6219.83 5160.98Z" fill="#000611" stroke="white" stroke-width="51"/>
<path d="M5827.75 5221.96C5861.43 5221.96 5888.73 5194.66 5888.73 5160.98C5888.73 5127.3 5861.43 5100 5827.75 5100C5794.07 5100 5766.77 5127.3 5766.77 5160.98C5766.77 5194.66 5794.07 5221.96 5827.75 5221.96ZM5839.19 5160.98V4893.94H5816.32V5160.98H5839.19Z" fill="white"/>
<line x1="6101.44" y1="5157.66" x2="5818.16" y2="5157.66" stroke="white" stroke-width="31"/>
<path d="M13186.8 2884.37H13717.9V5982.67H13186.8V2884.37ZM16397.7 2884.37V3380.1H14923.8V4185.65H16079.1V4681.38H14923.8V5486.94H16397.7V5982.67H14392.7V2884.37H16397.7ZM18986.9 2884.37V3380.1H17513V4185.65H18668.2V4681.38H17513V5486.94H18986.9V5982.67H16981.8V2884.37H18986.9ZM21576 2884.37V3380.1H20102.1V4185.65H21257.3V4681.38H20102.1V5486.94H21576V5982.67H19570.9V2884.37H21576ZM23555.1 5247.93C23649.5 5377.76 23770.5 5467.76 23918.1 5517.92C24065.6 5565.13 24216.1 5588.74 24369.5 5588.74C24428.6 5588.74 24492 5582.84 24559.9 5571.04C24627.7 5559.23 24691.2 5538.58 24750.2 5509.07C24809.2 5479.56 24857.9 5441.2 24896.2 5393.99C24934.6 5343.83 24953.8 5281.86 24953.8 5208.09C24953.8 5107.77 24911 5025.15 24825.4 4960.23C24739.9 4892.36 24633.6 4828.92 24506.7 4769.9C24379.9 4710.89 24241.2 4651.87 24090.7 4592.86C23943.2 4533.84 23805.9 4464.5 23679.1 4384.83C23552.2 4302.21 23445.9 4203.36 23360.4 4088.28C23274.8 3973.2 23232 3831.56 23232 3663.37C23232 3512.88 23261.5 3381.57 23320.5 3269.44C23379.6 3154.36 23457.8 3059.94 23555.1 2986.17C23652.5 2909.45 23764.6 2851.91 23891.5 2813.55C24021.3 2775.19 24155.6 2756.01 24294.3 2756.01C24497.9 2756.01 24694.1 2797.32 24883 2879.94C25071.8 2959.61 25238.5 3070.27 25383.1 3211.9L25033.5 3601.4C24930.2 3498.13 24813.6 3418.46 24683.8 3362.39C24556.9 3306.33 24421.2 3278.3 24276.6 3278.3C24211.7 3278.3 24146.8 3285.67 24081.8 3300.43C24019.9 3312.23 23963.8 3334.36 23913.6 3366.82C23866.4 3396.33 23828.1 3437.64 23798.6 3490.75C23769.1 3540.91 23754.3 3604.35 23754.3 3681.07C23754.3 3769.6 23797.1 3844.84 23882.7 3906.81C23968.2 3965.82 24074.5 4023.36 24201.3 4079.43C24328.2 4132.54 24465.4 4188.6 24613 4247.62C24763.5 4306.64 24902.1 4378.93 25029 4464.5C25155.9 4547.12 25262.1 4650.4 25347.7 4774.33C25433.3 4895.31 25476.1 5045.8 25476.1 5225.8C25476.1 5376.29 25442.1 5507.6 25374.3 5619.72C25306.4 5728.9 25219.4 5820.38 25113.1 5894.14C25006.9 5967.91 24885.9 6022.5 24750.2 6057.91C24617.4 6093.32 24484.6 6111.03 24351.8 6111.03C24236.8 6111.03 24121.7 6100.7 24006.6 6080.04C23894.5 6059.39 23785.3 6026.93 23679.1 5982.67C23575.8 5938.41 23478.4 5882.34 23386.9 5814.47C23295.5 5746.61 23214.3 5665.46 23143.5 5571.04L23555.1 5247.93ZM26058.9 2884.37H27037C27240.6 2884.37 27414.7 2919.78 27559.3 2990.6C27703.9 3061.41 27817.5 3154.36 27900.1 3269.44C27985.7 3381.57 28041.8 3506.98 28068.3 3645.66C28094.9 3781.4 28090.5 3915.66 28055.1 4048.44C28022.6 4178.28 27959.2 4299.26 27864.7 4411.39C27773.3 4523.52 27650.8 4609.09 27497.4 4668.1L28395.9 5982.67H27762.9L26926.4 4747.77H26590V5982.67H26058.9V2884.37ZM26590 4247.62H27037C27149.2 4247.62 27242.1 4226.96 27315.9 4185.65C27392.6 4141.39 27448.7 4088.28 27484.1 4026.31C27522.4 3961.4 27541.6 3892.05 27541.6 3818.28C27541.6 3741.56 27522.4 3672.22 27484.1 3610.26C27445.7 3545.34 27389.7 3492.23 27315.9 3450.91C27242.1 3406.65 27149.2 3384.52 27037 3384.52H26590V4247.62ZM29310.5 2884.37H29487.6L30660.5 5110.72L31833.4 2884.37H32010.5L32475.2 5982.67H31952.9L31678.5 4212.21L30749 5982.67H30572L29638.1 4212.21L29368.1 5982.67H28845.8L29310.5 2884.37Z" fill="black"/>
<path d="M13062.8 8432.54L13268.6 8270.98C13363.8 8401.55 13523.1 8441.39 13675.8 8441.39C13793.1 8441.39 13968 8397.13 13968 8251.06C13968 7954.51 13107.1 7985.5 13107.1 7478.7C13107.1 7177.73 13392.6 7091.42 13669.2 7089.2H15391V7337.07H14886.4V8638.35H14620.8V7337.07H13669.2C13527.6 7337.07 13368.2 7352.56 13368.2 7487.56C13368.2 7753.12 14229.1 7717.71 14229.1 8259.92C14229.1 8560.89 13932.6 8702.53 13667 8702.53C13439 8702.53 13204.5 8620.65 13062.8 8432.54ZM15615.7 8049.68V7089.2H15881.3V8049.68C15881.3 8290.9 16062.8 8410.41 16242 8410.41C16423.5 8410.41 16602.7 8290.9 16602.7 8049.68V7089.2H16868.3V8049.68C16868.3 8476.8 16556.3 8691.47 16242 8691.47C15930 8691.47 15615.7 8476.8 15615.7 8049.68ZM17183.1 8638.35V7089.2H17641.2C18170.1 7093.63 18433.5 7478.7 18433.5 7863.78C18433.5 8248.85 18170.1 8633.93 17641.2 8638.35H17183.1ZM17630.1 7337.07H17448.7V8388.28H17630.1C18329.5 8388.28 18331.7 7337.07 17630.1 7337.07ZM18734.9 7089.2H19737.4V7337.07H19000.4V7739.85H19578V7987.71H19000.4V8390.49H19737.4V8638.35H18734.9V7089.2ZM20029.4 7089.2H20120.1L21027.5 8065.17V7089.2H21293.1V8638.35H21204.6L20295 7660.18V8638.35H20029.4V7089.2ZM22042.5 7337.07H21540.2V7089.2H22814.9V7337.07H22308.1V8638.35H22042.5V7337.07ZM24261.4 8638.35H23635.1V8390.49H24261.4C24542.5 8390.49 24542.5 7945.66 24261.4 7945.66H23635.1V7695.58H24261.4C24907.6 7695.58 24907.6 8638.35 24261.4 8638.35ZM24137.5 7939.02H23635.1V7695.58H24137.5C24416.3 7695.58 24416.3 7334.85 24137.5 7334.85H23635.1V7089.2H24137.5C24783.7 7089.2 24783.7 7939.02 24137.5 7939.02ZM23599.7 8638.35V7089.2H23865.3V8638.35H23599.7ZM25891.1 8638.35L25406.4 7921.32H25718.5L26207.6 8638.35H25891.1ZM25039.1 8638.35V7089.2H25304.6V8638.35H25039.1ZM25528.2 8020.91H25074.5V7770.83H25528.2C25864.6 7770.83 25862.3 7339.28 25528.2 7339.28H25074.5V7089.2H25528.2C26227.5 7089.2 26227.5 8020.91 25528.2 8020.91ZM26642.8 8638.35H26366.1L27087.6 7067.07H27131.9L27851.1 8638.35H27576.7L27477.1 8421.47H26742.4L26642.8 8638.35ZM26855.2 8173.61H27362L27109.7 7624.77L26855.2 8173.61ZM28099.3 7089.2H28190.1L29097.4 8065.17V7089.2H29363V8638.35H29274.5L28364.9 7660.18V8638.35H28099.3V7089.2ZM30462.1 8671.55C29397.6 8671.55 29397.6 7056.01 30462.1 7056.01C30625.9 7056.01 30791.9 7113.55 30924.7 7213.13L30769.8 7430.02C30705.6 7372.48 30594.9 7319.36 30464.3 7319.36C29767.2 7319.36 29767.2 8408.19 30464.3 8408.19C30630.3 8408.19 30721.1 8346.23 30769.8 8301.97L30924.7 8514.42C30798.5 8618.43 30665.7 8671.55 30462.1 8671.55ZM30309.4 7739.85H32434V7987.71H30309.4V7739.85ZM31238.9 8638.35V7089.2H31504.5V8638.35H31238.9ZM32245.9 8638.35V7089.2H32511.4V8638.35H32245.9Z" fill="black"/>
<defs>
<linearGradient id="paint0_linear_164_92" x1="3451.65" y1="6063.18" x2="8638.72" y2="6063.18" gradientUnits="userSpaceOnUse">
<stop stop-color="#B19787"/>
<stop offset="1" stop-color="#79675D"/>
</linearGradient>
<linearGradient id="paint1_linear_164_92" x1="5861.69" y1="2625.54" x2="5861.69" y2="8646.57" gradientUnits="userSpaceOnUse">
<stop stop-color="#D0B4A3"/>
<stop offset="1" stop-color="#736258"/>
</linearGradient>
<linearGradient id="paint2_linear_164_92" x1="5861.69" y1="2625.54" x2="5861.69" y2="8646.57" gradientUnits="userSpaceOnUse">
<stop stop-color="#D0B4A3"/>
<stop offset="1" stop-color="#736258"/>
</linearGradient>
<linearGradient id="paint3_linear_164_92" x1="5861.69" y1="2625.54" x2="5861.69" y2="8646.57" gradientUnits="userSpaceOnUse">
<stop stop-color="#D0B4A3"/>
<stop offset="1" stop-color="#736258"/>
</linearGradient>
<linearGradient id="paint4_linear_164_92" x1="5861.69" y1="2625.54" x2="5861.69" y2="8646.57" gradientUnits="userSpaceOnUse">
<stop stop-color="#D0B4A3"/>
<stop offset="1" stop-color="#736258"/>
</linearGradient>
<linearGradient id="paint5_linear_164_92" x1="5861.69" y1="2625.54" x2="5861.69" y2="8646.57" gradientUnits="userSpaceOnUse">
<stop stop-color="#D0B4A3"/>
<stop offset="1" stop-color="#736258"/>
</linearGradient>
</defs>
</svg>
