<svg width="15920" height="15920" viewBox="0 0 15920 15920" fill="none" xmlns="http://www.w3.org/2000/svg">
<path d="M624.618 8386.5C333.874 8184.66 341.786 7748.56 639.418 7557.03C3731.9 5566.95 5375.4 3861.03 7543.49 629.334C7740.42 335.799 8176.21 338.285 8370.84 633.353C10612.5 4031.97 12323.1 5678.14 15251.1 7542.93C15556.4 7737.37 15558.6 8185.79 15254.9 8382.61C12255.1 10326.3 10557.4 11978 8360.43 15303.8C8168.45 15594.4 7741.23 15602 7540.86 15317.1C5450.6 12345 3837.79 10617.1 624.618 8386.5Z" fill="#000611"/>
<path d="M2295.39 8362.81C2023.62 8172.35 2031.39 7762.91 2309.67 7581.66C4637.83 6065.3 5922.65 4733.75 7568.68 2299.88C7754.33 2025.38 8162.69 2027.18 8346.38 2303.1C10047.4 4858.33 11379.2 6147.37 13582 7567.58C13867.4 7751.58 13869.2 8173.07 13585.2 8359.16C11327.9 9838.48 10004.8 11131.5 8335.93 13635C8154.75 13906.8 7754.3 13913 7565.61 13646.6C5977.88 11404.7 4714.6 10058.1 2295.39 8362.81Z" fill="#000611" stroke="#79675D" stroke-width="62"/>
<path d="M7573.66 13664.1L6061 11711.5H7573.66L8368 11710.1H9538.5H9593H9777.5L9082.5 12579.6L8368 13621.6L8163 13806.6L8039 13845.6H7899.5H7805L7698.5 13783.1L7573.66 13664.1Z" fill="#79675D"/>
<path fill-rule="evenodd" clip-rule="evenodd" d="M6564.5 9302.47L6564.5 8976.54C6435.23 8951.14 6307.87 8923.06 6261.88 8906.65C6202.95 8885.82 6139.93 8864.41 6074.85 8842.29C5625.48 8689.58 5078.41 8503.66 5106.09 8249.88C5042.87 7964.07 5939.88 7545.15 6526.45 7317.3L6463.4 7281.6L6408.18 7234.66L6316.87 7172.59L6210.5 7114.27L6033.19 7180.72C5516.35 7373.54 5127.04 7597.38 4903.07 7828.41C4754.58 7983.74 4711.64 8069.53 4710.31 8223.21C4708.56 8353.96 4732.72 8421.66 4826.44 8539.83C5000.76 8760.86 5425.31 8982.91 6075.77 9191.46C6203.24 9232.66 6370.06 9270.17 6564.5 9302.47ZM9986.38 9125.04C9754.44 9219.52 9510.44 9282.09 9203.5 9333.63L9179.5 9019.25C9267.99 9001.79 9356.96 8982.38 9446.88 8961.04C10026.4 8827.32 10366 8656.29 10551.8 8450.94C10706.4 8276.46 10708.5 8150.65 10537.8 7961.14C10471.6 7890.49 10182.8 7750.35 10041.6 7681.88C10033.3 7677.85 10025.5 7674.06 10018.3 7670.55L9922.63 7626.45L9756.29 7642.23C9709.9 7646.41 9687.25 7650.22 9669.94 7653.13C9653.18 7655.95 9641.41 7657.93 9617.93 7658.61L9505.47 7661.83L9356.22 7375.75C9337.91 7337.84 9324.58 7308.92 9313.52 7284.92C9281.91 7216.3 9268.79 7187.84 9210.61 7104.17C9712.96 7219.68 10213.8 7341.5 10712.9 7469.59C10715.8 7470.66 10666.3 7486.99 10604.9 7507.2L10604.9 7507.23L10602.9 7507.87C10597.6 7509.61 10592.4 7511.33 10587.3 7513.02C10531.5 7531.37 10483.9 7547.01 10477.6 7553.63C10472 7559.17 10493.4 7580.34 10527.4 7599.75C10935.5 7832.81 11057.5 7968.21 11063.8 8188.66C11070.9 8257.46 11056.3 8326.77 11022.2 8387.3C10964.7 8510.04 10829.7 8651.63 10656.7 8769.49C10443.3 8905.32 10219.1 9024.21 9986.38 9125.04Z" fill="url(#paint0_linear_164_177)"/>
<path d="M9159.96 7643.63L8914.59 7643.63H8874.1V6285.28H6963.12V7643.63L6720.86 7643.63L6963.12 7851.67H8874.1L9159.96 7643.63Z" fill="url(#paint1_linear_164_177)"/>
<path d="M8989.87 6238.32L9159.96 6081.28L6720.86 6078.81L6864.26 6238.32H8989.87Z" fill="url(#paint2_linear_164_177)"/>
<path d="M8888.39 6022.42V5796.17L8941.27 5729.22H8606.82V5165.98L8806.2 5077.91L8479.61 4937.94H7329.97L7037.21 5077.91L7215.63 5165.98V5729.22H6900.47L6963.12 5796.17V6022.42H8888.39Z" fill="url(#paint3_linear_164_177)"/>
<path d="M6987.66 5026.68L6900.47 4982.2C6946.05 4955.24 7079.13 4883.75 7246.84 4813.47C7354.13 4478.62 7673.8 4324.37 7820.22 4289.09V4165.3L7743.28 4095.2L7841.66 3998.82L7875.97 3684.06L7803.07 3640.7L7892.88 3630.14L7915.03 3561.61C7918.27 3557.12 7920.83 3559.74 7921.7 3561.61L7945.05 3630.14L8033.67 3640.7L7950.05 3684.06L7977.45 3998.82L8079.88 4095.2L7999.36 4165.3V4289.09C8335.15 4335.82 8544.24 4658.15 8606.82 4813.47L8941.27 4982.2L8834.55 5005.79L8479.61 4865.14H7329.97L6987.66 5026.68Z" fill="url(#paint4_linear_164_177)"/>
<path fill-rule="evenodd" clip-rule="evenodd" d="M6963.12 7953.42L6897.13 10197.2H6263L6472.63 10400.1V11663.8L6384.25 11721.1H7652.52H9487.05L9401.03 11663.8V10400.1L9629 10197.2H8959.61L8874.1 7953.42H6963.12ZM7264.94 8479.6V10197.2H8532.49V8479.6C8088.26 7759.76 7502.36 8179.67 7264.94 8479.6Z" fill="url(#paint5_linear_164_177)"/>
<path d="M8431.5 6996.13C8431.5 7297.43 8187.47 7541.63 7886.5 7541.63C7585.53 7541.63 7341.5 7297.43 7341.5 6996.13C7341.5 6694.84 7585.53 6450.63 7886.5 6450.63C8187.47 6450.63 8431.5 6694.84 8431.5 6996.13Z" fill="#000611" stroke="white" stroke-width="51"/>
<path d="M7900 7078.8C7945.66 7078.8 7982.67 7041.79 7982.67 6996.13C7982.67 6950.48 7945.66 6913.47 7900 6913.47C7854.34 6913.47 7817.33 6950.48 7817.33 6996.13C7817.33 7041.79 7854.34 7078.8 7900 7078.8ZM7915.5 6996.13V6634.13H7884.5V6996.13H7915.5Z" fill="white"/>
<line x1="8271" y1="6991.63" x2="7887" y2="6991.63" stroke="white" stroke-width="31"/>
<defs>
<linearGradient id="paint0_linear_164_177" x1="4679" y1="8219.13" x2="11710.5" y2="8219.13" gradientUnits="userSpaceOnUse">
<stop stop-color="#B19787"/>
<stop offset="1" stop-color="#79675D"/>
</linearGradient>
<linearGradient id="paint1_linear_164_177" x1="7946" y1="3559.13" x2="7946" y2="11721.1" gradientUnits="userSpaceOnUse">
<stop stop-color="#D0B4A3"/>
<stop offset="1" stop-color="#736258"/>
</linearGradient>
<linearGradient id="paint2_linear_164_177" x1="7946" y1="3559.13" x2="7946" y2="11721.1" gradientUnits="userSpaceOnUse">
<stop stop-color="#D0B4A3"/>
<stop offset="1" stop-color="#736258"/>
</linearGradient>
<linearGradient id="paint3_linear_164_177" x1="7946" y1="3559.13" x2="7946" y2="11721.1" gradientUnits="userSpaceOnUse">
<stop stop-color="#D0B4A3"/>
<stop offset="1" stop-color="#736258"/>
</linearGradient>
<linearGradient id="paint4_linear_164_177" x1="7946" y1="3559.13" x2="7946" y2="11721.1" gradientUnits="userSpaceOnUse">
<stop stop-color="#D0B4A3"/>
<stop offset="1" stop-color="#736258"/>
</linearGradient>
<linearGradient id="paint5_linear_164_177" x1="7946" y1="3559.13" x2="7946" y2="11721.1" gradientUnits="userSpaceOnUse">
<stop stop-color="#D0B4A3"/>
<stop offset="1" stop-color="#736258"/>
</linearGradient>
</defs>
</svg>
