<svg width="15920" height="18786" viewBox="0 0 15920 18786" fill="none" xmlns="http://www.w3.org/2000/svg">
<path d="M3318.57 15828.1V17359H2994.9V15828.1H3318.57ZM3584.87 17359V15828.1H4616.44V16095H3908.55V16459.7H4563.37V16726.6H3908.55V17092.1H4619.43V17359H3584.87ZM4873.78 17359V15828.1H5905.35V16095H5197.45V16459.7H5852.27V16726.6H5197.45V17092.1H5908.34V17359H4873.78ZM6162.68 17359V15828.1H7194.25V16095H6486.35V16459.7H7141.17V16726.6H6486.35V17092.1H7197.24V17359H6162.68ZM8769.26 16268.4C8763.28 16208.1 8737.61 16161.2 8692.27 16127.8C8646.92 16094.5 8585.37 16077.8 8507.63 16077.8C8454.8 16077.8 8410.2 16085.2 8373.82 16100.2C8337.45 16114.6 8309.54 16134.8 8290.1 16160.7C8271.17 16186.6 8261.7 16216.1 8261.7 16248.9C8260.7 16276.4 8266.43 16300.3 8278.89 16320.7C8291.85 16341.1 8309.54 16358.8 8331.96 16373.8C8354.39 16388.2 8380.3 16400.9 8409.7 16411.9C8439.11 16422.4 8470.5 16431.3 8503.89 16438.8L8641.43 16471.7C8708.21 16486.7 8769.51 16506.6 8825.32 16531.5C8881.14 16556.4 8929.48 16587.1 8970.34 16623.4C9011.2 16659.8 9042.85 16702.7 9065.27 16752C9088.2 16801.4 9099.91 16857.9 9100.41 16921.7C9099.91 17015.4 9075.99 17096.6 9028.65 17165.4C8981.8 17233.7 8914.03 17286.7 8825.32 17324.6C8737.12 17362 8630.72 17380.7 8506.13 17380.7C8382.55 17380.7 8274.9 17361.7 8183.21 17323.9C8092.01 17286 8020.75 17229.9 7969.42 17155.7C7918.59 17080.9 7891.93 16988.5 7889.43 16878.3H8202.64C8206.13 16929.7 8220.83 16972.5 8246.75 17006.9C8273.16 17040.8 8308.29 17066.5 8352.15 17083.9C8396.5 17100.9 8446.58 17109.3 8502.4 17109.3C8557.21 17109.3 8604.81 17101.4 8645.17 17085.4C8686.04 17069.5 8717.68 17047.3 8740.11 17018.9C8762.53 16990.5 8773.74 16957.8 8773.74 16921C8773.74 16886.6 8763.53 16857.7 8743.1 16834.2C8723.16 16810.8 8693.76 16790.9 8654.89 16774.4C8616.52 16758 8569.42 16743 8513.61 16729.6L8346.91 16687.7C8217.84 16656.3 8115.93 16607.2 8041.18 16540.5C7966.43 16473.7 7929.3 16383.7 7929.8 16270.6C7929.3 16177.9 7953.97 16096.9 8003.8 16027.7C8054.14 15958.4 8123.16 15904.3 8210.87 15865.5C8298.57 15826.6 8398.24 15807.2 8509.87 15807.2C8623.49 15807.2 8722.66 15826.6 8807.38 15865.5C8892.6 15904.3 8958.88 15958.4 9006.22 16027.7C9053.56 16096.9 9077.98 16177.2 9079.48 16268.4H8769.26ZM9318.12 17359V15828.1H9922.11C10037.7 15828.1 10136.4 15848.8 10218.1 15890.1C10300.4 15931 10362.9 15989.1 10405.8 16064.3C10449.1 16139.1 10470.8 16227 10470.8 16328.2C10470.8 16429.8 10448.9 16517.3 10405 16590.6C10361.2 16663.3 10297.6 16719.1 10214.4 16758C10131.7 16796.9 10031.5 16816.3 9913.89 16816.3H9509.49V16556.2H9861.56C9923.36 16556.2 9974.69 16547.7 10015.6 16530.8C10056.4 16513.8 10086.8 16488.4 10106.7 16454.5C10127.2 16420.6 10137.4 16378.5 10137.4 16328.2C10137.4 16277.3 10127.2 16234.5 10106.7 16199.6C10086.8 16164.7 10056.2 16138.3 10014.8 16120.4C9973.94 16101.9 9922.36 16092.7 9860.07 16092.7H9641.8V17359H9318.12ZM10144.9 16662.3L10525.4 17359H10168L9795.78 16662.3H10144.9ZM10699.5 15828.1H11098.7L11520.3 16856.7H11538.2L11959.8 15828.1H12359V17359H12045.1V16362.6H12032.3L11636.2 17351.5H11422.4L11026.2 16358.8H11013.5V17359H10699.5V15828.1Z" fill="#737373"/>
<path d="M3408.81 18015.1C3405.93 17986 3393.55 17963.5 3371.68 17947.4C3349.82 17931.3 3320.14 17923.2 3282.66 17923.2C3257.18 17923.2 3235.68 17926.8 3218.14 17934C3200.6 17941 3187.14 17950.7 3177.77 17963.2C3168.64 17975.7 3164.07 17989.9 3164.07 18005.7C3163.59 18019 3166.35 18030.5 3172.36 18040.3C3178.61 18050.2 3187.14 18058.7 3197.95 18065.9C3208.77 18072.9 3221.26 18079 3235.44 18084.3C3249.62 18089.4 3264.75 18093.7 3280.85 18097.3L3347.17 18113.2C3379.37 18120.4 3408.93 18130 3435.84 18142C3462.76 18154 3486.06 18168.8 3505.77 18186.3C3525.47 18203.9 3540.73 18224.5 3551.54 18248.3C3562.6 18272.1 3568.24 18299.4 3568.48 18330.1C3568.24 18375.3 3556.71 18414.5 3533.88 18447.6C3511.29 18480.6 3478.62 18506.2 3435.84 18524.4C3393.31 18542.4 3342.01 18551.5 3281.93 18551.5C3222.34 18551.5 3170.44 18542.3 3126.22 18524.1C3082.25 18505.8 3047.89 18478.8 3023.14 18443C2998.63 18406.9 2985.77 18362.3 2984.57 18309.2H3135.6C3137.28 18334 3144.37 18354.7 3156.86 18371.2C3169.6 18387.6 3186.54 18399.9 3207.68 18408.4C3229.07 18416.5 3253.22 18420.6 3280.13 18420.6C3306.56 18420.6 3329.51 18416.8 3348.98 18409.1C3368.68 18401.4 3383.94 18390.7 3394.75 18377C3405.57 18363.3 3410.97 18347.6 3410.97 18329.8C3410.97 18313.2 3406.05 18299.3 3396.19 18288C3386.58 18276.7 3372.41 18267.1 3353.66 18259.1C3335.16 18251.2 3312.45 18244 3285.54 18237.5L3205.16 18217.3C3142.92 18202.2 3093.78 18178.5 3057.74 18146.3C3021.7 18114.1 3003.79 18070.7 3004.04 18016.2C3003.79 17971.5 3015.69 17932.5 3039.72 17899.1C3063.99 17865.7 3097.27 17839.6 3139.56 17820.8C3181.85 17802.1 3229.91 17792.7 3283.74 17792.7C3338.52 17792.7 3386.34 17802.1 3427.19 17820.8C3468.28 17839.6 3500.24 17865.7 3523.07 17899.1C3545.9 17932.5 3557.67 17971.1 3558.39 18015.1H3408.81ZM3645.35 17931.5V17802.8H4251.61V17931.5H4025.61V18541H3871.34V17931.5H3645.35ZM4807.41 17802.8H4963.48V18282.2C4963.48 18336 4950.62 18383.1 4924.91 18423.5C4899.44 18463.9 4863.76 18495.3 4817.86 18517.9C4771.97 18540.3 4718.5 18551.5 4657.47 18551.5C4596.19 18551.5 4542.6 18540.3 4496.71 18517.9C4450.81 18495.3 4415.13 18463.9 4389.66 18423.5C4364.19 18383.1 4351.45 18336 4351.45 18282.2V17802.8H4507.52V18268.9C4507.52 18297 4513.65 18322 4525.9 18343.8C4538.4 18365.7 4555.94 18382.9 4578.53 18395.4C4601.12 18407.9 4627.43 18414.1 4657.47 18414.1C4687.74 18414.1 4714.05 18407.9 4736.4 18395.4C4758.99 18382.9 4776.41 18365.7 4788.67 18343.8C4801.16 18322 4807.41 18297 4807.41 18268.9V17802.8ZM5353.57 18541H5091.89V17802.8H5355.73C5429.98 17802.8 5493.9 17817.6 5547.48 17847.2C5601.07 17876.5 5642.28 17918.6 5671.11 17973.7C5700.19 18028.7 5714.73 18094.5 5714.73 18171.2C5714.73 18248.1 5700.19 18314.2 5671.11 18369.4C5642.28 18424.7 5600.83 18467.1 5546.76 18496.7C5492.94 18526.2 5428.54 18541 5353.57 18541ZM5247.96 18407.3H5347.08C5393.21 18407.3 5432.02 18399.1 5463.5 18382.8C5495.22 18366.2 5519.01 18340.6 5534.87 18306C5550.97 18271.2 5559.02 18226.2 5559.02 18171.2C5559.02 18116.6 5550.97 18072.1 5534.87 18037.5C5519.01 18002.9 5495.34 17977.4 5463.86 17961.1C5432.38 17944.7 5393.57 17936.5 5347.44 17936.5H5247.96V18407.3ZM5830.34 18541V17802.8H6327.75V17931.5H5986.41V18107.4H6302.15V18236.1H5986.41V18412.3H6329.19V18541H5830.34ZM7069.26 17802.8V18541H6934.46L6613.3 18076.4H6607.9V18541H6451.83V17802.8H6588.79L6907.42 18267.1H6913.91V17802.8H7069.26ZM7170.09 17931.5V17802.8H7776.36V17931.5H7550.36V18541H7396.09V17931.5H7170.09ZM8111.11 18541V17802.8H8406.68C8460.98 17802.8 8506.28 17810.9 8542.56 17827C8578.85 17843.1 8606.12 17865.4 8624.38 17894C8642.64 17922.4 8651.77 17955 8651.77 17992C8651.77 18020.9 8646.01 18046.2 8634.47 18068.1C8622.94 18089.7 8607.08 18107.5 8586.9 18121.4C8566.95 18135.1 8544.12 18144.9 8518.41 18150.6V18157.9C8546.53 18159.1 8572.84 18167 8597.35 18181.6C8622.1 18196.3 8642.16 18216.8 8657.54 18243.3C8672.92 18269.5 8680.61 18300.7 8680.61 18337C8680.61 18376.2 8670.88 18411.1 8651.41 18441.9C8632.19 18472.4 8603.72 18496.5 8565.99 18514.3C8528.26 18532.1 8481.77 18541 8426.5 18541H8111.11ZM8267.19 18413.4H8394.42C8437.91 18413.4 8469.63 18405.1 8489.58 18388.5C8509.52 18371.7 8519.49 18349.4 8519.49 18321.5C8519.49 18301.1 8514.57 18283 8504.72 18267.4C8494.86 18251.8 8480.81 18239.6 8462.54 18230.7C8444.52 18221.8 8423.02 18217.3 8398.02 18217.3H8267.19V18413.4ZM8267.19 18111.7H8382.89C8404.27 18111.7 8423.26 18108 8439.84 18100.5C8456.66 18092.9 8469.87 18082 8479.48 18068.1C8489.34 18054.2 8494.26 18037.5 8494.26 18018C8494.26 17991.3 8484.77 17969.8 8465.79 17953.5C8447.04 17937.1 8420.37 17929 8385.77 17929H8267.19V18111.7ZM8782.16 18541V17802.8H9073.4C9129.15 17802.8 9176.73 17812.8 9216.13 17832.7C9255.78 17852.4 9285.94 17880.4 9306.6 17916.7C9327.51 17952.8 9337.96 17995.2 9337.96 18044C9337.96 18093 9327.39 18135.1 9306.24 18170.5C9285.1 18205.6 9254.46 18232.5 9214.33 18251.2C9174.44 18269.9 9126.14 18279.3 9069.44 18279.3H8874.44V18153.9H9044.2C9074 18153.9 9098.75 18149.8 9118.46 18141.6C9138.16 18133.5 9152.82 18121.2 9162.43 18104.9C9172.28 18088.5 9177.21 18068.2 9177.21 18044C9177.21 18019.4 9172.28 17998.8 9162.43 17982C9152.82 17965.1 9138.04 17952.4 9118.09 17943.8C9098.39 17934.9 9073.52 17930.4 9043.48 17930.4H8938.23V18541H8782.16ZM9180.81 18205.1L9364.28 18541H9191.98L9012.49 18205.1H9180.81ZM9575.49 18541H9408.25L9663.08 17802.8H9864.21L10118.7 18541H9951.43L9766.53 17971.5H9760.76L9575.49 18541ZM9565.04 18250.8H9960.08V18372.7H9565.04V18250.8ZM10825 17802.8V18541H10690.2L10369 18076.4H10363.6V18541H10207.5V17802.8H10344.5L10663.1 18267.1H10669.6V17802.8H10825ZM11605.2 18061.3H11447.4C11444.5 18040.8 11438.6 18022.7 11429.7 18006.8C11420.8 17990.7 11409.4 17977 11395.4 17965.7C11381.5 17954.4 11365.4 17945.8 11347.1 17939.8C11329.1 17933.8 11309.5 17930.8 11288.4 17930.8C11250.2 17930.8 11216.9 17940.3 11188.6 17959.2C11160.2 17978 11138.2 18005.4 11122.6 18041.4C11107 18077.2 11099.2 18120.7 11099.2 18171.9C11099.2 18224.5 11107 18268.7 11122.6 18304.6C11138.5 18340.4 11160.6 18367.4 11188.9 18385.7C11217.3 18403.9 11250.1 18413 11287.3 18413C11308.2 18413 11327.6 18410.3 11345.3 18404.8C11363.4 18399.2 11379.3 18391.2 11393.3 18380.6C11407.2 18369.8 11418.8 18356.7 11427.9 18341.3C11437.3 18325.9 11443.7 18308.4 11447.4 18288.7L11605.2 18289.4C11601.1 18323.3 11590.9 18356 11574.6 18387.5C11558.5 18418.7 11536.7 18446.7 11509.3 18471.4C11482.2 18495.9 11449.8 18515.4 11412 18529.8C11374.5 18544 11332.1 18551.1 11284.8 18551.1C11219 18551.1 11160.1 18536.2 11108.2 18506.4C11056.5 18476.6 11015.7 18433.5 10985.6 18377C10955.8 18320.5 10940.9 18252.2 10940.9 18171.9C10940.9 18091.4 10956.1 18022.9 10986.3 17966.5C11016.6 17910 11057.7 17867 11109.6 17837.4C11161.5 17807.6 11219.9 17792.7 11284.8 17792.7C11327.6 17792.7 11367.2 17798.7 11403.7 17810.7C11440.5 17822.8 11473.1 17840.3 11501.4 17863.4C11529.8 17886.2 11552.8 17914.2 11570.6 17947.4C11588.6 17980.5 11600.2 18018.5 11605.2 18061.3ZM11717.1 18541V17802.8H11873.2V18107.4H12190V17802.8H12345.7V18541H12190V18236.1H11873.2V18541H11717.1Z" fill="#737373"/>
<path d="M624.618 8386.36C333.874 8184.53 341.786 7748.43 639.418 7556.9C3731.9 5566.81 5375.4 3860.9 7543.49 629.2C7740.42 335.665 8176.21 338.151 8370.84 633.219C10612.5 4031.83 12323.1 5678.01 15251.1 7542.8C15556.4 7737.24 15558.6 8185.65 15254.9 8382.48C12255.1 10326.2 10557.4 11977.8 8360.43 15303.6C8168.45 15594.3 7741.23 15601.9 7540.86 15317C5450.6 12344.8 3837.79 10617 624.618 8386.36Z" fill="#141821"/>
<path d="M2295.39 8362.67C2023.62 8172.22 2031.39 7762.77 2309.67 7581.53C4637.83 6065.17 5922.65 4733.62 7568.68 2299.75C7754.33 2025.24 8162.69 2027.04 8346.38 2302.97C10047.4 4858.2 11379.2 6147.24 13582 7567.45C13867.4 7751.44 13869.2 8172.94 13585.2 8359.03C11327.9 9838.34 10004.8 11131.3 8335.93 13634.8C8154.75 13906.6 7754.3 13912.9 7565.61 13646.4C5977.88 11404.6 4714.6 10058 2295.39 8362.67Z" fill="#141821" stroke="#737373" stroke-width="62"/>
<path d="M7573.66 13663.9L6061 11711.4L9440.24 11710H9538.5H9777.5L9082.5 12579.5L8368 13621.5L8163 13806.5L8039 13845.5H7899.5H7805L7698.5 13783L7573.66 13663.9Z" fill="#737373"/>
<path d="M7239.46 10916.6C7236.49 10886.6 7223.75 10863.4 7201.24 10846.8C7178.73 10830.2 7148.17 10821.9 7109.58 10821.9C7083.35 10821.9 7061.21 10825.7 7043.15 10833.1C7025.09 10840.3 7011.24 10850.3 7001.59 10863.1C6992.19 10876 6987.49 10890.6 6987.49 10906.9C6986.99 10920.5 6989.84 10932.4 6996.02 10942.5C7002.46 10952.7 7011.24 10961.5 7022.37 10968.9C7033.5 10976.1 7046.37 10982.4 7060.96 10987.8C7075.56 10993 7091.15 10997.5 7107.72 11001.2L7176 11017.5C7209.15 11024.9 7239.58 11034.8 7267.29 11047.2C7295 11059.6 7319 11074.8 7339.29 11092.8C7359.57 11110.9 7375.28 11132.2 7386.41 11156.7C7397.79 11181.2 7403.61 11209.2 7403.86 11240.9C7403.61 11287.4 7391.73 11327.7 7368.23 11361.9C7344.98 11395.8 7311.33 11422.1 7267.29 11440.9C7223.5 11459.5 7170.68 11468.8 7108.84 11468.8C7047.48 11468.8 6994.04 11459.4 6948.52 11440.6C6903.25 11421.8 6867.87 11393.9 6842.39 11357.1C6817.16 11320 6803.92 11274.1 6802.68 11219.4H6958.17C6959.9 11244.9 6967.2 11266.1 6980.07 11283.2C6993.18 11300 7010.62 11312.8 7032.39 11321.4C7054.41 11329.8 7079.27 11334.1 7106.98 11334.1C7134.19 11334.1 7157.82 11330.1 7177.86 11322.2C7198.15 11314.3 7213.86 11303.3 7224.99 11289.2C7236.12 11275 7241.69 11258.8 7241.69 11240.5C7241.69 11223.5 7236.62 11209.1 7226.47 11197.5C7216.58 11185.9 7201.98 11176 7182.68 11167.8C7163.63 11159.6 7140.26 11152.2 7112.55 11145.5L7029.79 11124.8C6965.72 11109.2 6915.13 11084.8 6878.02 11051.7C6840.91 11018.5 6822.48 10973.8 6822.72 10917.7C6822.48 10871.7 6834.72 10831.5 6859.46 10797.1C6884.45 10762.7 6918.71 10735.8 6962.25 10716.6C7005.8 10697.3 7055.27 10687.6 7110.69 10687.6C7167.1 10687.6 7216.33 10697.3 7258.39 10716.6C7300.69 10735.8 7333.6 10762.7 7357.1 10797.1C7380.6 10831.5 7392.72 10871.3 7393.46 10916.6H7239.46ZM7511.94 11458V10698H7811.78C7869.18 10698 7918.16 10708.3 7958.73 10728.8C7999.55 10749.1 8030.6 10777.9 8051.88 10815.3C8073.4 10852.4 8084.16 10896 8084.16 10946.3C8084.16 10996.7 8073.28 11040.1 8051.51 11076.5C8029.74 11112.6 7998.19 11140.3 7956.88 11159.6C7915.81 11178.9 7866.08 11188.6 7807.7 11188.6H7606.94V11059.4H7781.72C7812.4 11059.4 7837.88 11055.2 7858.17 11046.8C7878.45 11038.4 7893.54 11025.8 7903.44 11009C7913.58 10992.2 7918.66 10971.2 7918.66 10946.3C7918.66 10921 7913.58 10899.7 7903.44 10882.4C7893.54 10865.1 7878.33 10852 7857.8 10843.1C7837.51 10833.9 7811.9 10829.4 7780.98 10829.4H7672.62V11458H7511.94ZM7922.37 11112.1L8111.25 11458H7933.87L7749.07 11112.1H7922.37ZM8197.72 10698H8395.88L8605.18 11208.6H8614.08L8823.38 10698H9021.55V11458H8865.69V10963.3H8859.38L8662.7 11454.3H8556.57L8359.89 10961.5H8353.58V11458H8197.72V10698Z" fill="#141821"/>
<path fill-rule="evenodd" clip-rule="evenodd" d="M6564.5 9302.34L6564.5 8976.4C6435.23 8951.01 6307.87 8922.93 6261.88 8906.52C6202.95 8885.69 6139.93 8864.27 6074.85 8842.16C5625.48 8689.44 5078.41 8503.53 5106.09 8249.75C5042.87 7963.94 5939.88 7545.02 6526.45 7317.17L6463.4 7281.46L6408.18 7234.53L6316.87 7172.46L6210.5 7114.14L6033.19 7180.59C5516.35 7373.41 5127.04 7597.24 4903.07 7828.28C4754.58 7983.61 4711.64 8069.4 4710.31 8223.08C4708.56 8353.83 4732.72 8421.53 4826.44 8539.7C5000.76 8760.73 5425.31 8982.78 6075.77 9191.33C6203.24 9232.53 6370.06 9270.03 6564.5 9302.34ZM9986.38 9124.91C9754.44 9219.38 9510.44 9281.95 9203.5 9333.5L9179.5 9019.12C9267.99 9001.66 9356.96 8982.25 9446.88 8960.91C10026.4 8827.19 10366 8656.15 10551.8 8450.81C10706.4 8276.33 10708.5 8150.51 10537.8 7961.01C10471.6 7890.35 10182.8 7750.22 10041.6 7681.75C10033.3 7677.72 10025.5 7673.93 10018.3 7670.42L9922.63 7626.32L9756.29 7642.09C9709.9 7646.28 9687.25 7650.09 9669.94 7653C9653.18 7655.82 9641.41 7657.8 9617.93 7658.47L9505.47 7661.7L9356.22 7375.62C9337.91 7337.71 9324.58 7308.79 9313.52 7284.79C9281.91 7216.17 9268.79 7187.71 9210.61 7104.04C9712.96 7219.55 10213.8 7341.37 10712.9 7469.46C10715.8 7470.53 10666.3 7486.86 10604.9 7507.07L10604.9 7507.09L10602.9 7507.74C10597.6 7509.48 10592.4 7511.2 10587.3 7512.89C10531.5 7531.23 10483.9 7546.88 10477.6 7553.5C10472 7559.04 10493.4 7580.21 10527.4 7599.61C10935.5 7832.68 11057.5 7968.07 11063.8 8188.53C11070.9 8257.33 11056.3 8326.64 11022.2 8387.17C10964.7 8509.91 10829.7 8651.5 10656.7 8769.35C10443.3 8905.18 10219.1 9024.08 9986.38 9124.91Z" fill="url(#paint0_linear_164_22)"/>
<path d="M9159.96 7643.49L8914.59 7643.49H8874.1V6285.15H6963.12V7643.49L6720.86 7643.49L6963.12 7851.54H8874.1L9159.96 7643.49Z" fill="url(#paint1_linear_164_22)"/>
<path d="M8989.87 6238.19L9159.96 6081.15L6720.86 6078.67L6864.26 6238.19H8989.87Z" fill="url(#paint2_linear_164_22)"/>
<path d="M8888.39 6022.28V5796.04L8941.27 5729.09H8606.82V5165.84L8806.2 5077.77L8479.61 4937.8H7329.97L7037.21 5077.77L7215.63 5165.84V5729.09H6900.47L6963.12 5796.04V6022.28H8888.39Z" fill="url(#paint3_linear_164_22)"/>
<path d="M6987.66 5026.55L6900.47 4982.06C6946.05 4955.1 7079.13 4883.61 7246.84 4813.34C7354.13 4478.49 7673.8 4324.23 7820.22 4288.96V4165.17L7743.28 4095.07L7841.66 3998.69L7875.97 3683.93L7803.07 3640.56L7892.88 3630.01L7915.03 3561.48C7918.27 3556.99 7920.83 3559.61 7921.7 3561.48L7945.05 3630.01L8033.67 3640.56L7950.05 3683.93L7977.45 3998.69L8079.88 4095.07L7999.36 4165.17V4288.96C8335.15 4335.69 8544.24 4658.02 8606.82 4813.34L8941.27 4982.06L8834.55 5005.65L8479.61 4865.01H7329.97L6987.66 5026.55Z" fill="url(#paint4_linear_164_22)"/>
<path fill-rule="evenodd" clip-rule="evenodd" d="M6963.12 7953.29L6897.13 10197.1H6263L6472.63 10399.9V11663.7L6384.25 11721H7652.52H9487.05L9401.03 11663.7V10399.9L9629 10197.1H8959.61L8874.1 7953.29H6963.12ZM7264.94 8479.47V10197.1H8532.49V8479.47C8088.26 7759.63 7502.36 8179.53 7264.94 8479.47Z" fill="url(#paint5_linear_164_22)"/>
<path d="M8431.5 6996C8431.5 7297.29 8187.47 7541.5 7886.5 7541.5C7585.53 7541.5 7341.5 7297.29 7341.5 6996C7341.5 6694.71 7585.53 6450.5 7886.5 6450.5C8187.47 6450.5 8431.5 6694.71 8431.5 6996Z" fill="#141821" stroke="white" stroke-width="51"/>
<path d="M7900 7078.67C7945.66 7078.67 7982.67 7041.66 7982.67 6996C7982.67 6950.34 7945.66 6913.33 7900 6913.33C7854.34 6913.33 7817.33 6950.34 7817.33 6996C7817.33 7041.66 7854.34 7078.67 7900 7078.67ZM7915.5 6996V6634H7884.5V6996H7915.5Z" fill="white"/>
<line x1="8271" y1="6991.5" x2="7887" y2="6991.5" stroke="white" stroke-width="31"/>
<defs>
<linearGradient id="paint0_linear_164_22" x1="4679" y1="8219" x2="11710.5" y2="8219" gradientUnits="userSpaceOnUse">
<stop stop-color="white"/>
<stop offset="1" stop-color="#5D616A"/>
</linearGradient>
<linearGradient id="paint1_linear_164_22" x1="7946" y1="3559" x2="7946" y2="11721" gradientUnits="userSpaceOnUse">
<stop stop-color="#FEFEFE"/>
<stop offset="1" stop-color="#6F6F6F"/>
</linearGradient>
<linearGradient id="paint2_linear_164_22" x1="7946" y1="3559" x2="7946" y2="11721" gradientUnits="userSpaceOnUse">
<stop stop-color="#FEFEFE"/>
<stop offset="1" stop-color="#6F6F6F"/>
</linearGradient>
<linearGradient id="paint3_linear_164_22" x1="7946" y1="3559" x2="7946" y2="11721" gradientUnits="userSpaceOnUse">
<stop stop-color="#FEFEFE"/>
<stop offset="1" stop-color="#6F6F6F"/>
</linearGradient>
<linearGradient id="paint4_linear_164_22" x1="7946" y1="3559" x2="7946" y2="11721" gradientUnits="userSpaceOnUse">
<stop stop-color="#FEFEFE"/>
<stop offset="1" stop-color="#6F6F6F"/>
</linearGradient>
<linearGradient id="paint5_linear_164_22" x1="7946" y1="3559" x2="7946" y2="11721" gradientUnits="userSpaceOnUse">
<stop stop-color="#FEFEFE"/>
<stop offset="1" stop-color="#6F6F6F"/>
</linearGradient>
</defs>
</svg>
