<svg width="15920" height="18650" viewBox="0 0 15920 18650" fill="none" xmlns="http://www.w3.org/2000/svg">
<path d="M3600.84 15692.1V17223H3277.16V15692.1H3600.84ZM3867.14 17223V15692.1H4898.71V15959H4190.81V16323.7H4845.64V16590.6H4190.81V16956.1H4901.7V17223H3867.14ZM5156.04 17223V15692.1H6187.61V15959H5479.72V16323.7H6134.54V16590.6H5479.72V16956.1H6190.6V17223H5156.04ZM6444.94 17223V15692.1H7476.51V15959H6768.62V16323.7H7423.44V16590.6H6768.62V16956.1H7479.5V17223H6444.94ZM9051.52 16132.4C9045.54 16072.1 9019.88 16025.2 8974.53 15991.8C8929.18 15958.5 8867.64 15941.8 8789.89 15941.8C8737.07 15941.8 8692.47 15949.2 8656.09 15964.2C8619.71 15978.6 8591.8 15998.8 8572.37 16024.7C8553.43 16050.6 8543.96 16080.1 8543.96 16112.9C8542.97 16140.4 8548.7 16164.3 8561.16 16184.7C8574.11 16205.1 8591.8 16222.8 8614.23 16237.8C8636.65 16252.2 8662.57 16264.9 8691.97 16275.9C8721.37 16286.4 8752.77 16295.3 8786.16 16302.8L8923.7 16335.7C8990.48 16350.7 9051.77 16370.6 9107.59 16395.5C9163.4 16420.4 9211.74 16451.1 9252.61 16487.4C9293.47 16523.8 9325.12 16566.7 9347.54 16616C9370.46 16665.4 9382.18 16721.9 9382.67 16785.7C9382.18 16879.4 9358.25 16960.6 9310.91 17029.4C9264.07 17097.7 9196.29 17150.7 9107.59 17188.6C9019.38 17226 8912.99 17244.7 8788.4 17244.7C8664.81 17244.7 8557.17 17225.7 8465.47 17187.9C8374.28 17150 8303.01 17093.9 8251.68 17019.7C8200.85 16944.9 8174.19 16852.5 8171.7 16742.3H8484.91C8488.4 16793.7 8503.1 16836.5 8529.01 16870.9C8555.42 16904.8 8590.56 16930.5 8634.41 16947.9C8678.76 16964.9 8728.85 16973.3 8784.66 16973.3C8839.48 16973.3 8887.07 16965.4 8927.44 16949.4C8968.3 16933.5 8999.95 16911.3 9022.37 16882.9C9044.8 16854.5 9056.01 16821.8 9056.01 16785C9056.01 16750.6 9045.79 16721.7 9025.36 16698.2C9005.43 16674.8 8976.03 16654.9 8937.16 16638.4C8898.78 16622 8851.69 16607 8795.87 16593.6L8629.18 16551.7C8500.11 16520.3 8398.2 16471.2 8323.45 16404.5C8248.69 16337.7 8211.57 16247.7 8212.07 16134.6C8211.57 16041.9 8236.24 15960.9 8286.07 15891.7C8336.4 15822.4 8405.42 15768.3 8493.13 15729.5C8580.84 15690.6 8680.51 15671.2 8792.14 15671.2C8905.76 15671.2 9004.93 15690.6 9089.65 15729.5C9174.86 15768.3 9241.14 15822.4 9288.49 15891.7C9335.83 15960.9 9360.25 16041.2 9361.74 16132.4H9051.52ZM9600.39 17223V15692.1H10204.4C10320 15692.1 10418.7 15712.8 10500.4 15754.1C10582.6 15795 10645.2 15853.1 10688 15928.3C10731.4 16003.1 10753.1 16091 10753.1 16192.2C10753.1 16293.8 10731.1 16381.3 10687.3 16454.6C10643.4 16527.3 10579.9 16583.1 10496.7 16622C10413.9 16660.9 10313.8 16680.3 10196.2 16680.3H9791.75V16420.2H10143.8C10205.6 16420.2 10257 16411.7 10297.8 16394.8C10338.7 16377.8 10369.1 16352.4 10389 16318.5C10409.4 16284.6 10419.7 16242.5 10419.7 16192.2C10419.7 16141.3 10409.4 16098.5 10389 16063.6C10369.1 16028.7 10338.4 16002.3 10297.1 15984.4C10256.2 15965.9 10204.6 15956.7 10142.3 15956.7H9924.06V17223H9600.39ZM10427.1 16526.3L10807.6 17223H10450.3L10078 16526.3H10427.1ZM10981.8 15692.1H11381L11802.6 16720.7H11820.5L12242.1 15692.1H12641.3V17223H12327.3V16226.6H12314.6L11918.4 17215.5H11704.6L11308.5 16222.8H11295.7V17223H10981.8V15692.1Z" fill="#695344"/>
<path d="M3691.08 17879.1C3688.19 17850 3675.82 17827.5 3653.95 17811.4C3632.08 17795.3 3602.41 17787.2 3564.92 17787.2C3539.45 17787.2 3517.94 17790.8 3500.4 17798C3482.86 17805 3469.4 17814.7 3460.03 17827.2C3450.9 17839.7 3446.34 17853.9 3446.34 17869.7C3445.86 17883 3448.62 17894.5 3454.63 17904.3C3460.87 17914.2 3469.4 17922.7 3480.22 17929.9C3491.03 17936.9 3503.53 17943 3517.7 17948.3C3531.88 17953.4 3547.02 17957.7 3563.12 17961.3L3629.44 17977.2C3661.64 17984.4 3691.2 17994 3718.11 18006C3745.02 18018 3768.33 18032.8 3788.03 18050.3C3807.74 18067.9 3823 18088.5 3833.81 18112.3C3844.86 18136.1 3850.51 18163.4 3850.75 18194.1C3850.51 18239.3 3838.98 18278.5 3816.15 18311.6C3793.56 18344.6 3760.88 18370.2 3718.11 18388.4C3675.58 18406.4 3624.27 18415.5 3564.2 18415.5C3504.61 18415.5 3452.7 18406.3 3408.49 18388.1C3364.52 18369.8 3330.15 18342.8 3305.4 18307C3280.89 18270.9 3268.04 18226.3 3266.84 18173.2H3417.86C3419.54 18198 3426.63 18218.7 3439.13 18235.2C3451.86 18251.6 3468.8 18263.9 3489.95 18272.4C3511.34 18280.5 3535.49 18284.6 3562.4 18284.6C3588.83 18284.6 3611.78 18280.8 3631.24 18273.1C3650.95 18265.4 3666.2 18254.7 3677.02 18241C3687.83 18227.3 3693.24 18211.6 3693.24 18193.8C3693.24 18177.2 3688.31 18163.3 3678.46 18152C3668.85 18140.7 3654.67 18131.1 3635.93 18123.1C3617.43 18115.2 3594.72 18108 3567.8 18101.5L3487.43 18081.3C3425.19 18066.2 3376.05 18042.5 3340.01 18010.3C3303.96 17978.1 3286.06 17934.7 3286.3 17880.2C3286.06 17835.5 3297.96 17796.5 3321.98 17763.1C3346.25 17729.7 3379.53 17703.6 3421.83 17684.8C3464.12 17666.1 3512.18 17656.7 3566 17656.7C3620.79 17656.7 3668.61 17666.1 3709.46 17684.8C3750.55 17703.6 3782.51 17729.7 3805.33 17763.1C3828.16 17796.5 3839.94 17835.1 3840.66 17879.1H3691.08ZM3927.61 17795.5V17666.8H4533.88V17795.5H4307.88V18405H4153.61V17795.5H3927.61ZM5089.67 17666.8H5245.74V18146.2C5245.74 18200 5232.89 18247.1 5207.18 18287.5C5181.71 18327.9 5146.02 18359.3 5100.13 18381.9C5054.23 18404.3 5000.77 18415.5 4939.73 18415.5C4878.46 18415.5 4824.87 18404.3 4778.97 18381.9C4733.08 18359.3 4697.39 18327.9 4671.92 18287.5C4646.45 18247.1 4633.72 18200 4633.72 18146.2V17666.8H4789.79V18132.9C4789.79 18161 4795.92 18186 4808.17 18207.8C4820.67 18229.7 4838.21 18246.9 4860.79 18259.4C4883.38 18271.9 4909.69 18278.1 4939.73 18278.1C4970.01 18278.1 4996.32 18271.9 5018.67 18259.4C5041.25 18246.9 5058.68 18229.7 5070.93 18207.8C5083.43 18186 5089.67 18161 5089.67 18132.9V17666.8ZM5635.83 18405H5374.15V17666.8H5637.99C5712.24 17666.8 5776.16 17681.6 5829.75 17711.2C5883.33 17740.5 5924.54 17782.6 5953.38 17837.7C5982.45 17892.7 5996.99 17958.5 5996.99 18035.2C5996.99 18112.1 5982.45 18178.2 5953.38 18233.4C5924.54 18288.7 5883.09 18331.1 5829.03 18360.7C5775.2 18390.2 5710.8 18405 5635.83 18405ZM5530.22 18271.3H5629.34C5675.48 18271.3 5714.29 18263.1 5745.77 18246.8C5777.48 18230.2 5801.27 18204.6 5817.13 18170C5833.23 18135.2 5841.28 18090.2 5841.28 18035.2C5841.28 17980.6 5833.23 17936.1 5817.13 17901.5C5801.27 17866.9 5777.6 17841.4 5746.13 17825.1C5714.65 17808.7 5675.84 17800.5 5629.7 17800.5H5530.22V18271.3ZM6112.6 18405V17666.8H6610.01V17795.5H6268.67V17971.4H6584.42V18100.1H6268.67V18276.3H6611.45V18405H6112.6ZM7351.53 17666.8V18405H7216.72L6895.57 17940.4H6890.16V18405H6734.09V17666.8H6871.06L7189.69 18131.1H7196.18V17666.8H7351.53ZM7452.36 17795.5V17666.8H8058.62V17795.5H7832.62V18405H7678.36V17795.5H7452.36ZM8393.38 18405V17666.8H8688.94C8743.25 17666.8 8788.54 17674.9 8824.83 17691C8861.11 17707.1 8888.38 17729.4 8906.65 17758C8924.91 17786.4 8934.04 17819 8934.04 17856C8934.04 17884.9 8928.27 17910.2 8916.74 17932.1C8905.21 17953.7 8889.35 17971.5 8869.16 17985.4C8849.22 17999.1 8826.39 18008.9 8800.68 18014.6V18021.9C8828.79 18023.1 8855.1 18031 8879.61 18045.6C8904.36 18060.3 8924.43 18080.8 8939.81 18107.3C8955.19 18133.5 8962.88 18164.7 8962.88 18201C8962.88 18240.2 8953.14 18275.1 8933.68 18305.9C8914.46 18336.4 8885.98 18360.5 8848.26 18378.3C8810.53 18396.1 8764.03 18405 8708.77 18405H8393.38ZM8549.45 18277.4H8676.69C8720.18 18277.4 8751.9 18269.1 8771.84 18252.5C8791.79 18235.7 8801.76 18213.4 8801.76 18185.5C8801.76 18165.1 8796.83 18147 8786.98 18131.4C8777.13 18115.8 8763.07 18103.6 8744.81 18094.7C8726.79 18085.8 8705.28 18081.3 8680.29 18081.3H8549.45V18277.4ZM8549.45 17975.7H8665.15C8686.54 17975.7 8705.52 17972 8722.1 17964.5C8738.92 17956.9 8752.14 17946 8761.75 17932.1C8771.6 17918.2 8776.53 17901.5 8776.53 17882C8776.53 17855.3 8767.04 17833.8 8748.05 17817.5C8729.31 17801.1 8702.64 17793 8668.04 17793H8549.45V17975.7ZM9064.43 18405V17666.8H9355.67C9411.41 17666.8 9458.99 17676.8 9498.4 17696.7C9538.05 17716.4 9568.21 17744.4 9588.87 17780.7C9609.78 17816.8 9620.23 17859.2 9620.23 17908C9620.23 17957 9609.66 17999.1 9588.51 18034.5C9567.36 18069.6 9536.73 18096.5 9496.6 18115.2C9456.71 18133.9 9408.41 18143.3 9351.7 18143.3H9156.7V18017.9H9326.47C9356.27 18017.9 9381.02 18013.8 9400.72 18005.6C9420.42 17997.5 9435.08 17985.2 9444.69 17968.9C9454.55 17952.5 9459.47 17932.2 9459.47 17908C9459.47 17883.4 9454.55 17862.8 9444.69 17846C9435.08 17829.1 9420.3 17816.4 9400.36 17807.8C9380.66 17798.9 9355.79 17794.4 9325.75 17794.4H9220.5V18405H9064.43ZM9463.08 18069.1L9646.54 18405H9474.25L9294.75 18069.1H9463.08ZM9857.76 18405H9690.51L9945.35 17666.8H10146.5L10400.9 18405H10233.7L10048.8 17835.5H10043L9857.76 18405ZM9847.31 18114.8H10242.3V18236.7H9847.31V18114.8ZM11107.2 17666.8V18405H10972.4L10651.3 17940.4H10645.9V18405H10489.8V17666.8H10626.8L10945.4 18131.1H10951.9V17666.8H11107.2ZM11887.5 17925.3H11729.6C11726.7 17904.8 11720.8 17886.7 11712 17870.8C11703.1 17854.7 11691.6 17841 11677.7 17829.7C11663.8 17818.4 11647.7 17809.8 11629.4 17803.8C11611.4 17797.8 11591.8 17794.8 11570.7 17794.8C11532.5 17794.8 11499.2 17804.3 11470.8 17823.2C11442.5 17842 11420.5 17869.4 11404.9 17905.4C11389.2 17941.2 11381.4 17984.7 11381.4 18035.9C11381.4 18088.5 11389.2 18132.7 11404.9 18168.6C11420.7 18204.4 11442.8 18231.4 11471.2 18249.7C11499.5 18267.9 11532.3 18277 11569.6 18277C11590.5 18277 11609.8 18274.3 11627.6 18268.8C11645.6 18263.2 11661.6 18255.2 11675.5 18244.6C11689.5 18233.8 11701 18220.7 11710.2 18205.3C11719.5 18189.9 11726 18172.4 11729.6 18152.7L11887.5 18153.4C11883.4 18187.3 11873.2 18220 11856.9 18251.5C11840.8 18282.7 11819 18310.7 11791.6 18335.4C11764.5 18359.9 11732 18379.4 11694.3 18393.8C11656.8 18408 11614.4 18415.1 11567.1 18415.1C11501.2 18415.1 11442.3 18400.2 11390.4 18370.4C11338.8 18340.6 11297.9 18297.5 11267.9 18241C11238.1 18184.5 11223.2 18116.2 11223.2 18035.9C11223.2 17955.4 11238.3 17886.9 11268.6 17830.5C11298.9 17774 11340 17731 11391.9 17701.4C11443.8 17671.6 11502.2 17656.7 11567.1 17656.7C11609.8 17656.7 11649.5 17662.7 11686 17674.7C11722.8 17686.8 11755.3 17704.3 11783.7 17727.4C11812 17750.2 11835.1 17778.2 11852.9 17811.4C11870.9 17844.5 11882.4 17882.5 11887.5 17925.3ZM11999.4 18405V17666.8H12155.5V17971.4H12472.3V17666.8H12628V18405H12472.3V18100.1H12155.5V18405H11999.4Z" fill="#9A7763"/>
<path d="M624.618 8386.36C333.874 8184.53 341.786 7748.43 639.418 7556.9C3731.9 5566.81 5375.4 3860.9 7543.49 629.2C7740.42 335.665 8176.21 338.151 8370.84 633.219C10612.5 4031.83 12323.1 5678.01 15251.1 7542.8C15556.4 7737.24 15558.6 8185.65 15254.9 8382.48C12255.1 10326.2 10557.4 11977.8 8360.43 15303.6C8168.45 15594.3 7741.23 15601.9 7540.86 15317C5450.6 12344.8 3837.79 10617 624.618 8386.36Z" fill="#000611"/>
<path d="M2295.39 8362.67C2023.62 8172.22 2031.39 7762.77 2309.67 7581.53C4637.83 6065.17 5922.65 4733.62 7568.68 2299.75C7754.33 2025.24 8162.69 2027.04 8346.38 2302.97C10047.4 4858.2 11379.2 6147.24 13582 7567.45C13867.4 7751.44 13869.2 8172.94 13585.2 8359.03C11327.9 9838.34 10004.8 11131.3 8335.93 13634.8C8154.75 13906.6 7754.3 13912.9 7565.61 13646.4C5977.88 11404.6 4714.6 10058 2295.39 8362.67Z" fill="#000611" stroke="#79675D" stroke-width="62"/>
<path d="M7573.66 13663.9L6061 11711.4H7573.66L8368 11710H9538.5H9593H9777.5L9082.5 12579.5L8368 13621.5L8163 13806.5L8039 13845.5H7899.5H7805L7698.5 13783L7573.66 13663.9Z" fill="#79675D"/>
<path fill-rule="evenodd" clip-rule="evenodd" d="M6564.5 9302.34L6564.5 8976.4C6435.23 8951.01 6307.87 8922.93 6261.88 8906.52C6202.95 8885.69 6139.93 8864.27 6074.85 8842.16C5625.48 8689.44 5078.41 8503.53 5106.09 8249.75C5042.87 7963.94 5939.88 7545.02 6526.45 7317.17L6463.4 7281.46L6408.18 7234.53L6316.87 7172.46L6210.5 7114.14L6033.19 7180.59C5516.35 7373.41 5127.04 7597.24 4903.07 7828.28C4754.58 7983.61 4711.64 8069.4 4710.31 8223.08C4708.56 8353.83 4732.72 8421.53 4826.44 8539.7C5000.76 8760.73 5425.31 8982.78 6075.77 9191.33C6203.24 9232.53 6370.06 9270.03 6564.5 9302.34ZM9986.38 9124.91C9754.44 9219.38 9510.44 9281.95 9203.5 9333.5L9179.5 9019.12C9267.99 9001.66 9356.96 8982.25 9446.88 8960.91C10026.4 8827.19 10366 8656.15 10551.8 8450.81C10706.4 8276.33 10708.5 8150.51 10537.8 7961.01C10471.6 7890.35 10182.8 7750.22 10041.6 7681.75C10033.3 7677.72 10025.5 7673.93 10018.3 7670.42L9922.63 7626.32L9756.29 7642.09C9709.9 7646.28 9687.25 7650.09 9669.94 7653C9653.18 7655.82 9641.41 7657.8 9617.93 7658.47L9505.47 7661.7L9356.22 7375.62C9337.91 7337.71 9324.58 7308.79 9313.52 7284.79C9281.91 7216.17 9268.79 7187.71 9210.61 7104.04C9712.96 7219.55 10213.8 7341.37 10712.9 7469.46C10715.8 7470.53 10666.3 7486.86 10604.9 7507.07L10604.9 7507.09L10602.9 7507.74C10597.6 7509.48 10592.4 7511.2 10587.3 7512.89C10531.5 7531.23 10483.9 7546.88 10477.6 7553.5C10472 7559.04 10493.4 7580.21 10527.4 7599.61C10935.5 7832.68 11057.5 7968.07 11063.8 8188.53C11070.9 8257.33 11056.3 8326.64 11022.2 8387.17C10964.7 8509.91 10829.7 8651.5 10656.7 8769.35C10443.3 8905.18 10219.1 9024.08 9986.38 9124.91Z" fill="url(#paint0_linear_164_41)"/>
<path d="M9159.96 7643.49L8914.59 7643.49H8874.1V6285.15H6963.12V7643.49L6720.86 7643.49L6963.12 7851.54H8874.1L9159.96 7643.49Z" fill="url(#paint1_linear_164_41)"/>
<path d="M8989.87 6238.19L9159.96 6081.15L6720.86 6078.67L6864.26 6238.19H8989.87Z" fill="url(#paint2_linear_164_41)"/>
<path d="M8888.39 6022.28V5796.04L8941.27 5729.09H8606.82V5165.84L8806.2 5077.77L8479.61 4937.8H7329.97L7037.21 5077.77L7215.63 5165.84V5729.09H6900.47L6963.12 5796.04V6022.28H8888.39Z" fill="url(#paint3_linear_164_41)"/>
<path d="M6987.66 5026.55L6900.47 4982.06C6946.05 4955.1 7079.13 4883.61 7246.84 4813.34C7354.13 4478.49 7673.8 4324.23 7820.22 4288.96V4165.17L7743.28 4095.07L7841.66 3998.69L7875.97 3683.93L7803.07 3640.56L7892.88 3630.01L7915.03 3561.48C7918.27 3556.99 7920.83 3559.61 7921.7 3561.48L7945.05 3630.01L8033.67 3640.56L7950.05 3683.93L7977.45 3998.69L8079.88 4095.07L7999.36 4165.17V4288.96C8335.15 4335.69 8544.24 4658.02 8606.82 4813.34L8941.27 4982.06L8834.55 5005.65L8479.61 4865.01H7329.97L6987.66 5026.55Z" fill="url(#paint4_linear_164_41)"/>
<path fill-rule="evenodd" clip-rule="evenodd" d="M6963.12 7953.29L6897.13 10197.1H6263L6472.63 10399.9V11663.7L6384.25 11721H7652.52H9487.05L9401.03 11663.7V10399.9L9629 10197.1H8959.61L8874.1 7953.29H6963.12ZM7264.94 8479.47V10197.1H8532.49V8479.47C8088.26 7759.63 7502.36 8179.53 7264.94 8479.47Z" fill="url(#paint5_linear_164_41)"/>
<path d="M8431.5 6996C8431.5 7297.29 8187.47 7541.5 7886.5 7541.5C7585.53 7541.5 7341.5 7297.29 7341.5 6996C7341.5 6694.71 7585.53 6450.5 7886.5 6450.5C8187.47 6450.5 8431.5 6694.71 8431.5 6996Z" fill="#000611" stroke="white" stroke-width="51"/>
<path d="M7900 7078.67C7945.66 7078.67 7982.67 7041.66 7982.67 6996C7982.67 6950.34 7945.66 6913.33 7900 6913.33C7854.34 6913.33 7817.33 6950.34 7817.33 6996C7817.33 7041.66 7854.34 7078.67 7900 7078.67ZM7915.5 6996V6634H7884.5V6996H7915.5Z" fill="white"/>
<line x1="8271" y1="6991.5" x2="7887" y2="6991.5" stroke="white" stroke-width="31"/>
<defs>
<linearGradient id="paint0_linear_164_41" x1="4679" y1="8219" x2="11710.5" y2="8219" gradientUnits="userSpaceOnUse">
<stop stop-color="#B19787"/>
<stop offset="1" stop-color="#79675D"/>
</linearGradient>
<linearGradient id="paint1_linear_164_41" x1="7946" y1="3559" x2="7946" y2="11721" gradientUnits="userSpaceOnUse">
<stop stop-color="#D0B4A3"/>
<stop offset="1" stop-color="#736258"/>
</linearGradient>
<linearGradient id="paint2_linear_164_41" x1="7946" y1="3559" x2="7946" y2="11721" gradientUnits="userSpaceOnUse">
<stop stop-color="#D0B4A3"/>
<stop offset="1" stop-color="#736258"/>
</linearGradient>
<linearGradient id="paint3_linear_164_41" x1="7946" y1="3559" x2="7946" y2="11721" gradientUnits="userSpaceOnUse">
<stop stop-color="#D0B4A3"/>
<stop offset="1" stop-color="#736258"/>
</linearGradient>
<linearGradient id="paint4_linear_164_41" x1="7946" y1="3559" x2="7946" y2="11721" gradientUnits="userSpaceOnUse">
<stop stop-color="#D0B4A3"/>
<stop offset="1" stop-color="#736258"/>
</linearGradient>
<linearGradient id="paint5_linear_164_41" x1="7946" y1="3559" x2="7946" y2="11721" gradientUnits="userSpaceOnUse">
<stop stop-color="#D0B4A3"/>
<stop offset="1" stop-color="#736258"/>
</linearGradient>
</defs>
</svg>
